<svg width="225" height="225" fill="none" xmlns="http://www.w3.org/2000/svg"><path d="M102.112 129.81c.158.045.323.105.51.15l.593.105c.42.075.877.173 1.387.248l1.658.12c.307.018.615.018.922 0h.983c.342-.02.682-.057 1.02-.113l1.072-.142c.368-.06.75-.165 1.103-.248l.57-.135a3.32 3.32 0 00.57-.157 20.057 20.057 0 002.31-.878 19.222 19.222 0 004.5-2.82l1.05-.937c.352-.315.652-.69.99-1.035.165-.173.322-.353.487-.533.165-.18.293-.382.443-.577.285-.39.6-.75.862-1.178l.75-1.267.188-.323.157-.337.33-.69.323-.683c.112-.232.165-.457.255-.682l.495-1.395c.524-1.916.791-3.894.795-5.88 0-.488-.053-.975-.083-1.463 0-.24 0-.48-.06-.75s-.082-.48-.127-.712c-.09-.473-.143-.953-.27-1.41-.128-.458-.255-.908-.375-1.358a19.093 19.093 0 00-2.295-4.822 18.483 18.483 0 00-1.5-1.988 3.77 3.77 0 00-.39-.442l-.405-.42c-.27-.27-.525-.555-.795-.803l-.825-.705a7.83 7.83 0 00-.803-.645l-.81-.555a7.74 7.74 0 00-.75-.495c-.517-.285-1.005-.555-1.5-.795-.495-.24-.907-.382-1.305-.547l-.555-.233-.502-.15-.803-.232-.667-.195.645.27.75.315.487.202.525.278c.375.195.788.405 1.223.645l1.357.892c.264.16.515.341.75.54l.75.593c.263.207.513.43.75.667l.75.75c.248.255.465.54.713.818l.36.42c.128.139.246.286.352.442a20.434 20.434 0 013.3 6.585c.483 1.729.736 3.515.75 5.31a20.946 20.946 0 01-.787 5.475l-.465 1.328a6.065 6.065 0 01-.248.675l-.285.615-.285.615-.142.315-.173.292-.705 1.185a20.38 20.38 0 01-3.502 4.065l-.24.225-.255.195-.518.398a9.812 9.812 0 01-1.027.75l-1.058.675c-.352.21-.75.382-1.08.57-.7.356-1.421.669-2.16.937a3.33 3.33 0 01-.532.18l-.533.165c-.352.098-.697.218-1.042.3l-1.02.195a7.663 7.663 0 01-.975.165l-.945.098c-.308 0-.6.082-.893.075h-1.627c-.495 0-.96-.083-1.38-.12l-.593-.053c-.18 0-.352-.06-.51-.09l-.817-.142-.683-.128.66.195.855.225zm23.536-2.168l-.713.585-.622.525-.578.39c-.697.465-1.087.75-1.087.75s.42-.217 1.162-.63l.608-.345.675-.472c.247-.165.502-.345.75-.54a2.68 2.68 0 00.397-.315l.405-.353.848-.75.825-.892.427-.473c.143-.165.263-.345.398-.517l.802-1.08c.512-.79.969-1.614 1.365-2.468.411-.883.764-1.793 1.058-2.722.253-.94.449-1.894.585-2.858.121-.932.183-1.872.187-2.812 0-.458-.06-.9-.09-1.343 0-.217 0-.435-.052-.652-.053-.218-.075-.42-.105-.623-.075-.412-.143-.817-.21-1.2-.068-.382-.21-.75-.308-1.095-.052-.18-.097-.352-.15-.517a3.325 3.325 0 00-.157-.48l-.36-.878-.315-.75-.323-.615c-.397-.75-.637-1.162-.637-1.162s.18.45.51 1.222c.082.195.18.405.277.638l.248.75.277.877c.105.308.15.653.24.998s.158.712.24 1.087c.083.375.098.75.143 1.178 0 .202.052.405.082.615.03.21 0 .42 0 .63 0 .425.015.86.045 1.305-.029.911-.109 1.82-.24 2.722a18.46 18.46 0 01-1.582 5.385 25.219 25.219 0 01-1.268 2.415l-.75 1.073c-.12.172-.232.352-.36.517l-.397.473-.75.915-.75.75c-.263.277-.495.54-.75.742z" fill="#fff"/><path d="M206.302 107.07a5.249 5.249 0 00-2.392.6l-7.313-7.32a84.741 84.741 0 00-15.405-37.995l2.723-5.25a5.248 5.248 0 005.035-2.824 5.254 5.254 0 00-.603-5.741 5.488 5.488 0 00-.682-.705 5.254 5.254 0 00-5.823-.647c-.614.32-1.158.76-1.602 1.292l-.038.06H168.6a84.952 84.952 0 00-44.37-20.52l-7.32-7.312a5.145 5.145 0 00.6-2.393 5.247 5.247 0 00-4.137-5.087 5.252 5.252 0 00-5.808 7.48l-7.32 7.312a84.9 84.9 0 00-44.363 20.483H44.287a5.414 5.414 0 00-.675-.705 5.25 5.25 0 00-7.432.645.418.418 0 01-.038.06 5.25 5.25 0 004.425 8.572l2.723 5.25a84.75 84.75 0 00-15.413 38.025l-7.312 7.32a5.254 5.254 0 00-6.412 1.371 5.245 5.245 0 00-.074 6.556 5.243 5.243 0 004.093 2.018 5.144 5.144 0 002.393-.6l7.312 7.32a84.749 84.749 0 0015.405 37.995l-3.75 7.2a5.256 5.256 0 00-3.971 2.842 5.25 5.25 0 008.689 5.761 5.139 5.139 0 001.02-1.95h10.605a84.9 84.9 0 0044.37 20.52l7.32 7.312a5.24 5.24 0 00-.065 4.563 5.235 5.235 0 001.436 1.849 5.256 5.256 0 006.556.074 5.247 5.247 0 002.018-4.093 5.17 5.17 0 00-.6-2.393l7.32-7.312a84.9 84.9 0 0044.37-20.52h11.587c.204.256.433.492.683.705a5.265 5.265 0 003.847 1.223 5.27 5.27 0 001.976-.576 5.261 5.261 0 001.602-1.292l.037-.06a5.255 5.255 0 00.603-5.742 5.255 5.255 0 00-5.035-2.823l-2.723-5.25a84.744 84.744 0 0015.405-37.995l7.313-7.32c.737.39 1.558.596 2.392.6a5.273 5.273 0 000-10.545l.015-.038zM27.36 119.738l-4.688-4.68a5.15 5.15 0 000-5.423l4.688-4.687a86.121 86.121 0 00-.338 7.395c0 2.49.128 4.957.338 7.395zm151.657-68.355a5.25 5.25 0 001.853 4.5c.097.082.21.142.315.217l-1.92 3.75a86.76 86.76 0 00-7.56-8.43l7.312-.037zM109.5 22.778a5.144 5.144 0 005.422 0l4.68 4.687a85.973 85.973 0 00-7.395-.337 86.01 86.01 0 00-7.395.337l4.688-4.687zM44.25 55.23a5.31 5.31 0 001.215-3.847h7.297a85.692 85.692 0 00-7.545 8.43l-1.92-3.75a5.82 5.82 0 00.953-.833zm1.035 118.073a5.246 5.246 0 00-1.68-2.595 4.992 4.992 0 00-1.065-.675l2.67-5.153a85.632 85.632 0 007.552 8.423h-7.477zm69.66 28.605a5.143 5.143 0 00-5.423 0l-4.68-4.658c2.438.21 4.905.345 7.395.345 2.49 0 4.958-.135 7.395-.345l-4.687 4.658zm56.4-126.803L147.63 51.383h8.445a75.843 75.843 0 0118 18.397l-2.73 5.325zm4.567-2.557a75.064 75.064 0 016.893 14.017l-9.315-9.315 2.422-4.702zm-.12 41.587a83.415 83.415 0 01-15.48 10.058l.623-.488a52.333 52.333 0 004.665-4.177 38.637 38.637 0 002.692-3l.863-1.118s-.353.345-1.035.96c-.683.615-1.733 1.455-3.083 2.498-1.35 1.042-3.052 2.212-5.055 3.472-1.005.623-2.062 1.298-3.24 1.905-1.177.608-2.355 1.335-3.675 1.943l-1.98.967c-.69.315-1.402.593-2.115.9l-2.175.945-2.295.833-2.355.847-2.467.75-2.52.75-2.595.608-2.648.607c-.892.203-1.807.3-2.715.458l-1.5.24c-1.17.15-2.362.285-3.57.405a25.112 25.112 0 00.038-44.213c3.697.368 7.192.9 10.5 1.553l2.497.577 2.52.75 2.468.75 2.355.855 2.295.833 2.182.93c.75.307 1.425.585 2.115.892l1.98.975c1.32.608 2.52 1.298 3.675 1.943a72.764 72.764 0 013.24 1.905 70.908 70.908 0 015.055 3.472 52.058 52.058 0 013.083 2.498c.69.607 1.035.96 1.035.96s-.285-.398-.863-1.118a39.861 39.861 0 00-2.692-3 52.255 52.255 0 00-4.665-4.17 98.98 98.98 0 013.667 1.995 81.443 81.443 0 0111.19 7.748l-34.185 1.792 34.17 1.71zm-127.2-3.517a83.04 83.04 0 0114.955-9.81 51.134 51.134 0 00-4.68 4.192 37.965 37.965 0 00-2.685 3c-.585.75-.862 1.118-.862 1.118s.345-.345 1.027-.96c.683-.615 1.733-1.455 3.09-2.498 1.358-1.042 3.053-2.212 5.055-3.472 1.005-.615 2.055-1.29 3.233-1.905 1.177-.615 2.362-1.328 3.675-1.935l1.987-.975c.683-.308 1.403-.593 2.115-.893l2.175-.937 2.303-.833 2.355-.847 2.467-.75 2.513-.75 2.602-.608.855-.195c3.035-.57 6.228-1.022 9.578-1.357a25.117 25.117 0 00-.038 44.25c-1.395-.143-2.76-.3-4.102-.488l-.93-.142c-.915-.158-1.83-.263-2.715-.458l-2.648-.607-2.602-.608-2.513-.75-2.467-.712-2.355-.855-2.303-.833-2.175-.93c-.75-.307-1.432-.585-2.115-.892l-1.987-.975c-1.313-.608-2.513-1.298-3.675-1.935a59.66 59.66 0 01-3.233-1.913 69.338 69.338 0 01-5.055-3.472 56.428 56.428 0 01-3.09-2.49c-.69-.608-1.027-.96-1.027-.96s.277.397.862 1.117a37.965 37.965 0 002.685 3 52.338 52.338 0 004.665 4.17l.608.48a81.98 81.98 0 01-4.26-2.302 80.636 80.636 0 01-11.25-7.815l32.857-1.725-32.895-1.74zm46.38-10.455a4.883 4.883 0 115.843 4.785c.084.275.129.56.135.847a3.081 3.081 0 11-4.83-2.527 4.84 4.84 0 01-1.148-3.105zm18.75 26.4a18.748 18.748 0 003.254-30.624 18.752 18.752 0 00-10.941-4.521 21.864 21.864 0 0127.296 27.094 21.864 21.864 0 01-28.01 14.534 21.86 21.86 0 01-9.606-6.521 18.758 18.758 0 0017.97.038h.037zm-1.447-42.683c-8.957-.029-17.89.94-26.633 2.888l18.3-35.385h16.673l18.292 35.385a120.636 120.636 0 00-26.67-2.888h.038zM81.93 87.675a103.011 103.011 0 00-18.75 6.878l-8.663-16.755 26.408-26.415h19.732L81.93 87.675zm0 49.335l18.75 36.293H80.925l-26.408-26.408 8.663-16.755a103 103 0 0018.712 6.87h.038zm3.75.908a124.29 124.29 0 0053.25 0l-18.293 35.385h-16.74L85.68 137.918zm57-.908a102.933 102.933 0 0018.705-6.87l8.67 16.755-26.505 26.408h-19.733l18.863-36.293zm0-49.335l-18.75-36.292h19.62l26.415 26.415-8.67 16.755a102.932 102.932 0 00-18.705-6.878h.09zm2.07-39.172l-6.75-6.75a75.104 75.104 0 0113.77 6.75h-7.02zm-4.073 0h-18.345l-5.767-11.153a74.373 74.373 0 0115.487 2.535l8.625 8.618zm-21.585 0H105.39l5.827-11.25h2.048l5.827 11.25zm-16.935 0H83.805l8.617-8.618a74.366 74.366 0 0115.495-2.535l-5.76 11.153zm-22.417 0h-7.043a75 75 0 0113.763-6.75l-6.72 6.75zm-2.88 2.88L53.122 75.105 50.37 69.75a75.752 75.752 0 0118-18.397l8.49.03zM51 77.25l-9.338 9.315a75.548 75.548 0 016.893-14.017L51 77.25zm1.387 2.693l8.25 15.907A82.844 82.844 0 0040.5 110.198l-.278.277c-1.162 1.17-1.732 1.868-1.732 1.868s.57.697 1.732 1.867l.278.278a82.869 82.869 0 0020.1 14.355l-8.228 15.907-12.622-12.592a74.868 74.868 0 010-39.63l12.637-12.585zM51 147.443l-2.43 4.695a75.097 75.097 0 01-6.893-14.018L51 147.443zm2.137 2.137l23.723 23.723H68.4a75.842 75.842 0 01-18-18.398l2.737-5.325zm26.61 26.603l6.75 6.75a74.606 74.606 0 01-13.77-6.75h7.02zm4.073 0h18.33l5.767 11.16a74.892 74.892 0 01-15.495-2.543l-8.602-8.617zm21.585 0H119.1l-5.82 11.25h-2.048l-5.827-11.25zm11.167 11.16l5.775-11.16h18.338l-8.633 8.617a74.878 74.878 0 01-15.495 2.543h.015zm21.458-4.425l6.75-6.75h7.035a74.705 74.705 0 01-13.815 6.75h.03zm18.06-9.615h-8.46l23.722-23.723 2.753 5.325a75.706 75.706 0 01-18.03 18.398h.015zm24.135-3.803a5.25 5.25 0 00-1.223 3.84h-7.297a86.618 86.618 0 007.545-8.46l1.92 3.713a4.952 4.952 0 00-.945.907zm-4.305-17.325l-2.43-4.695 9.322-9.322a75.12 75.12 0 01-6.892 13.98v.037zm8.775-19.98l-12.593 12.555-8.25-15.915c14.933-7.785 22.11-16.5 22.11-16.5s-7.177-8.715-22.11-16.5l8.25-15.907 12.593 12.592a74.66 74.66 0 010 39.63v.045zm7.38-24.045l-.18-2.302a19.28 19.28 0 00-.33-2.753c-.353-1.965-.75-4.222-1.2-6.75-.705-2.467-1.395-5.25-2.333-8.167l-1.755-4.5c-.307-.75-.592-1.575-.937-2.363-.345-.787-.788-1.552-1.185-2.347a78.849 78.849 0 00-145.305 6.93c-.45 1.335-1.05 2.625-1.388 3.99-.337 1.365-.75 2.73-1.065 4.08-.847 2.707-1.095 5.437-1.575 8.137l-.322 2.033c-.06.697-.083 1.41-.128 2.115-.082 1.41-.165 2.82-.24 4.222l-.06 1.05v.788a.576.576 0 000 .067v.12l.09 2.048.18 4.057a79.787 79.787 0 0044.543 65.685l2.347 1.193c.788.337 1.583.63 2.355.937l4.5 1.748c2.94.937 5.7 1.627 8.168 2.34l6.75 1.192c.908.176 1.828.287 2.752.33l2.31.18 4.23.33-4.237-.097-2.318-.053c-.928.01-1.855-.05-2.775-.18L96 191.295c-2.52-.615-5.34-1.192-8.363-2.025l-4.627-1.59c-.803-.285-1.628-.54-2.445-.855l-2.438-1.11a74.89 74.89 0 01-20.475-13.14 81.657 81.657 0 01-17.955-22.665 79.617 79.617 0 01-9.195-31.035c-.082-1.41-.165-2.827-.24-4.252l-.12-2.123v-1.147l.083-1.103.18-4.222c.037-.705.052-1.41.112-2.123l.308-2.19c.457-2.91.75-5.91 1.567-8.737.36-1.425.75-2.865 1.095-4.298.345-1.432.968-2.812 1.44-4.222a80.768 80.768 0 0149.448-49.425 81.411 81.411 0 0134.342-4.433 79.638 79.638 0 0131.095 9.195A81.883 81.883 0 01172.5 57.75a74.753 74.753 0 0113.14 20.513c.375.825.75 1.635 1.11 2.437.36.803.577 1.643.862 2.438.545 1.605 1.073 3.15 1.583 4.635.832 3 1.417 5.842 2.025 8.362.33 2.573.63 4.868.885 6.87.13.919.19 1.847.18 2.775 0 .855.037 1.628.052 2.325.06 2.76.098 4.238.098 4.238s-.143-1.47-.36-4.23v.037zm9.75 6.945l-4.688 4.68c.21-2.437.345-4.897.345-7.395 0-2.497-.135-4.957-.345-7.395l4.688 4.688a5.142 5.142 0 000 5.422zm14.542-5.385a2.63 2.63 0 00-1.469.442 2.633 2.633 0 00-1.128 2.711 2.642 2.642 0 002.076 2.076 2.638 2.638 0 003.154-2.597 2.635 2.635 0 00-2.633-2.632zm-208.252 0a2.635 2.635 0 00-2.597 3.153 2.642 2.642 0 002.076 2.076 2.635 2.635 0 002.711-1.127 2.64 2.64 0 00-2.19-4.102z" fill="#fff"/><path d="M107.107 157.815a7.976 7.976 0 008.812.968 7.975 7.975 0 004.269-7.769 7.976 7.976 0 00-5.542-6.919 7.985 7.985 0 00-8.514 2.47 7.957 7.957 0 00.975 11.25zm1.23-9.382a5.098 5.098 0 015.434-1.578 5.095 5.095 0 012.927 7.308 5.102 5.102 0 01-2.114 2.066 5.099 5.099 0 01-5.624-.619 5.098 5.098 0 01-1.799-3.46 5.106 5.106 0 011.176-3.717zm.848 15.607a3.992 3.992 0 001.131 6.066 3.995 3.995 0 004.418-.384 3.992 3.992 0 00-4.335-6.656 3.994 3.994 0 00-1.214.974zm3.053-99.038a7.982 7.982 0 00-7.798 6.248 7.98 7.98 0 1013.903-3.397 7.963 7.963 0 00-6.105-2.85zm3.262 11.88a5.099 5.099 0 01-7.264-7.09 5.1 5.1 0 017.887-.087 5.113 5.113 0 01-.623 7.177zm-.697-15.749a3.996 3.996 0 001.24-4.258 3.992 3.992 0 00-5.727-2.295 3.99 3.99 0 00.083 7.04 3.977 3.977 0 004.404-.487z" fill="#fff"/></svg>