<svg width="90" height="58" fill="none" xmlns="http://www.w3.org/2000/svg"><path d="M36.958 30.242l2.046.253-.78.907 1.178-.046-.217.537.521-.088-.94 1.728 1.283-.7-.861 1.67 1.68-1.109-.073.62.816-.417.248.99.49-.493a4.38 4.38 0 00.01.391c.034.523.122 1.042.262 1.547a7.78 7.78 0 01.985-1.736l.198.535.616-.555.578 1.538.8-1.893.834 1.013.122-.549c.142.202.297.401.457.604a14.3 14.3 0 001.649 1.714 13.604 13.604 0 01-.775-2.124c-.021-.122-.064-.237-.089-.359l1.056.723-.328-1.495 2.154.92-1.25-1.673 3.898 1.594-2.697-2.442 1.294.304-1.041-.992 2.51.27-2.335-1.328 1.16-.151-.988-.514 3.042-.564-2.113-.544 1.479-.472-2.022-.496 1.018-.551-1.028-.227 3.345-1.78-3.302.46.832-.79-1.373.16 1.207-1.142-1.937.387.784-1.544-1.228.66a.095.095 0 00-.006-.036 9.149 9.149 0 00.608-1.7 9.448 9.448 0 01-1.353 1.132l-.088.06.92-1.982-1.78 1.289c.1-.495.172-.995.213-1.497a13.057 13.057 0 01-1.207 1.557l-.145.16.324-2.057-1.266 1.567-.191-.797-.586.676-.34-1.845-.705 1.738-.484-.707-.282.868-.598-.769-.173.656c-.116-.102-.237-.212-.361-.313a7.621 7.621 0 00-1.229-.802c.16.387.285.787.375 1.195l-.895-.543.381 1.257-.999-.386.231.728-2.163-1.059 1.344 1.9h-.901l.458.694-.764.061.432.788-1.484.306 1.092.717-1.741.443 1.44.59-3.017 1.098 3.309.242c0 .007 0 .015.004.022l-1.384.816 1.277.234-1.44.948zm2.596-2.56c.006-.162.003-.342.017-.538.023-.21.057-.42.104-.627.111-.51.309-1.001.585-1.452a5.028 5.028 0 011.247-1.401 5.323 5.323 0 011.925-.953 5.454 5.454 0 012.291-.117 5.33 5.33 0 012.206.866 5.095 5.095 0 011.575 1.721c.197.333.348.69.45 1.06.066.192.06.351.121.521.04.181.072.364.093.548a5.001 5.001 0 01-1.263 3.654c-.35.4-.765.741-1.229 1.01-.187.112-.38.212-.579.302-.188.077-.365.134-.523.192a4.58 4.58 0 01-.752.163l-.268.046.258-.075c.243-.074.48-.16.713-.26l.471-.248c.178-.107.35-.223.515-.348a4.805 4.805 0 001.034-1.037c.337-.45.595-.95.762-1.481a4.701 4.701 0 00.157-1.83 4.063 4.063 0 00-.078-.465 4.208 4.208 0 00-.135-.491 3.687 3.687 0 00-.174-.422 4.046 4.046 0 00-.229-.439 4.917 4.917 0 00-.292-.433 1.7 1.7 0 01-.274.817 1.79 1.79 0 01-.645.592.846.846 0 01.238.751.861.861 0 01-.169.373.903.903 0 01-.734.348.906.906 0 01-.404-.102.867.867 0 01-.31-.269.836.836 0 01-.147-.378.829.829 0 01.132-.6 1.748 1.748 0 01-.872-.587 1.666 1.666 0 01-.077-1.969 1.79 1.79 0 01.823-.668 4.884 4.884 0 00-.526-.128 5.076 5.076 0 00-3.734.804 5.061 5.061 0 00-1.2 1.182c-.29.391-.518.822-.676 1.277a4.446 4.446 0 00-.167.583c-.038.187-.06.358-.086.511-.025.244-.033.49-.025.735l.011.26-.044-.26a4.177 4.177 0 01-.12-.737h.005z" fill="#fff"/><path d="M5.328 41.541l-.655.016.65.066c.17.03.342.048.515.057a18.9 18.9 0 002.496-.008 21.86 21.86 0 002.5-.4 26.085 26.085 0 002.753-.778c.322-.113.633-.233.93-.351.082.067.2.155.35.27-.41.34-.881.726-1.313 1.124a18.68 18.68 0 00-1.877 2.094c-.463.606-.732 1.026-.732 1.026s.365-.355.952-.829a17.666 17.666 0 013.034-1.988c-.093.083-.191.168-.28.255a9.63 9.63 0 00-1.856 2.596 6.002 6.002 0 00-.233.53c-.06.164-.117.3-.153.419l-.12.367.196-.335c.056-.109.143-.232.235-.373a5.42 5.42 0 01.338-.459 9.12 9.12 0 012.22-2.03c.443-.287.91-.54 1.393-.755.149-.061.292-.122.438-.173l.099.06a10.241 10.241 0 00-2.83 3.243 8.716 8.716 0 00-.376.762l-.123.296.194-.258c.128-.157.309-.386.551-.635a9.899 9.899 0 014.082-2.58l.077.04-.464.345c-.507.414-.986.86-1.432 1.334a11.881 11.881 0 00-2.223 3.55c-.067.183-.134.335-.17.48l-.132.41.206-.382c.064-.119.157-.26.26-.422.103-.162.218-.34.38-.516a11.252 11.252 0 012.393-2.407 13.3 13.3 0 011.513-.964c.436-.227.885-.43 1.344-.606l.268.121a5.07 5.07 0 00-.425.523c-.342.451-.63.938-.855 1.452-.1.228-.185.46-.256.698a5.73 5.73 0 01.507-.537 6.805 6.805 0 011.243-.928 6.627 6.627 0 011.255-.555l.07.029a6.34 6.34 0 00-.315.45c-.287.428-.532.88-.733 1.35-.16.384-.236.645-.236.645s.184-.207.487-.484a8.228 8.228 0 012.03-1.354c-.308.394-.587.807-.836 1.237a8.816 8.816 0 00-.968 2.554 6.908 6.908 0 00-.133.87l-.028.33.11-.317c.093-.27.204-.534.333-.79a8.473 8.473 0 011.478-2.104 8.881 8.881 0 011.704-1.38l.644.193c-.05.067-.104.13-.148.2a6.424 6.424 0 00-.972 2.28 3.488 3.488 0 00-.067.462c-.014.134-.028.244-.031.34l-.01.294.092-.277c.034-.107.075-.212.125-.314.05-.135.113-.266.185-.392a6.027 6.027 0 011.419-1.77c.2-.167.41-.321.63-.462a40.3 40.3 0 001.253.31 7.518 7.518 0 00-.73 3.55c.01.267.038.532.084.794l.05.294s.014-.111.033-.3a6.994 6.994 0 011.958-4.042l.443.083a7.114 7.114 0 00-.576 2.857 4.732 4.732 0 00.098 1.016l.046-.278c.037-.239.092-.474.166-.705a6.628 6.628 0 01.934-1.925 6.37 6.37 0 01.62-.75c.518.08 1.043.152 1.582.215a8.254 8.254 0 00.047 2.788c.054.306.13.61.224.908.008-.306.034-.612.078-.915a7.927 7.927 0 01.525-1.892c.1-.253.214-.502.34-.744.574.052 1.156.093 1.748.12a8.178 8.178 0 00.12 3.902c.012-.308.046-.615.1-.92a7.528 7.528 0 011.17-2.939l.883.009c.02.2.055.4.101.596.036.175.082.348.14.517.103-.39.26-.767.463-1.12a59.86 59.86 0 001.908-.066c-.004.42.022.838.077 1.254a8.76 8.76 0 00.579 2.125c.09.22.192.437.306.647l.128.235a7.632 7.632 0 01-.138-.95 7.806 7.806 0 01.119-2.059 8.15 8.15 0 01.372-1.357c.424-.035.85-.076 1.286-.123l.844 3.077.415-3.227c.526-.089 1.066-.153 1.602-.244.245.328.471.669.677 1.021.471.797.857 1.637 1.154 2.51 0 0 .01-.349-.013-.9a13.746 13.746 0 00-.227-1.95c-.055-.32-.131-.635-.21-.933l.73-.124c.142.116.284.236.425.38a5.61 5.61 0 011.012 1.18 1.738 1.738 0 01.211.668c.026-.064.048-.13.065-.196.039-.184.05-.373.031-.56a6.236 6.236 0 00-.494-1.62l-.041-.079.9-.202c.359.27.699.563 1.016.878.503.534.946 1.118 1.322 1.742.175.291.333.591.475.898a8.713 8.713 0 00-.172-1.012 10.347 10.347 0 00-.796-2.165 11.134 11.134 0 00-.416-.745l1.002-.26a4.72 4.72 0 011.619 2.088c.077.192.139.39.184.591l.04.233.029-.24c.028-.213.039-.427.031-.64a5.388 5.388 0 00-.44-1.964 6.66 6.66 0 00-.2-.417l.92-.264c.062.03.128.06.2.101.43.222.83.495 1.188.813.378.332.71.709.989 1.122.134.193.255.394.363.602a5.41 5.41 0 00-.079-.713 6.455 6.455 0 00-.473-1.552c-.138-.31-.3-.61-.483-.897l.744-.238c.257.198.494.42.71.66.356.396.654.839.885 1.315.108.226.2.459.277.697a6.06 6.06 0 00-.307-2.477 6.548 6.548 0 00-.261-.628l1.287-.448a7.316 7.316 0 011.524 1.306 7.051 7.051 0 00-.64-1.632l1.145-.428a9.22 9.22 0 011.515.672 9.443 9.443 0 00-.638-1.01c.53-.207 1.054-.417 1.569-.63.17.089.331.193.482.31.153.115.296.242.428.378a3.81 3.81 0 00-.178-.556 4.772 4.772 0 00-.178-.362 123.895 123.895 0 0020.231-10.708l1.833-1.248-2.085-.734c-1.987-.71-2.367-.83-8.58-5.644a52.308 52.308 0 00-4.8-3.317c.254-.211.483-.45.683-.71.109-.142.207-.291.293-.447a4.26 4.26 0 01-.477.216 4.127 4.127 0 01-1.07.24c-.21.018-.421.017-.631-.001-.269-.153-.52-.31-.809-.45a4.36 4.36 0 00.59-.73c.284-.443.472-.935.554-1.447.024-.16.036-.322.035-.484l-.03-.175-.076.161a3.026 3.026 0 01-.235.401c-.257.366-.59.677-.975.914a3.185 3.185 0 01-1.16.43 1.98 1.98 0 01-.377.033l-.095.016-.355-.165c.249-.285.464-.595.642-.925.291-.52.474-1.088.538-1.674.017-.184.02-.368.01-.552l-.035-.201-.066.191a3.01 3.01 0 01-.22.489 3.82 3.82 0 01-.959 1.136 3.951 3.951 0 01-1.331.699 2.596 2.596 0 01-.29.049l-.05-.019c.186-.266.35-.546.493-.836.258-.525.43-1.085.508-1.66.037-.25.052-.503.044-.756a4.645 4.645 0 01-.353.669 5.18 5.18 0 01-2.202 1.996l-.726-.265c.35-.4.667-.825.947-1.274.395-.64.703-1.325.915-2.04.082-.284.134-.527.167-.695.032-.168.048-.265.048-.265l-.127.242c-.082.15-.2.359-.365.603a8.205 8.205 0 01-3.08 2.708l-.28.138-.565-.166.141-.186a5.47 5.47 0 00.783-1.688c.05-.192.087-.387.112-.583l.024-.216-.107.194a3.632 3.632 0 01-.303.502c-.33.451-.737.845-1.203 1.164-.27.179-.557.333-.856.46a36.69 36.69 0 00-1.378-.307 12.678 12.678 0 00.91-2.043c.141-.434.213-.726.213-.726a12.488 12.488 0 01-1.641 1.748c-.303.265-.621.513-.953.743a35.662 35.662 0 00-1.224-.172c.146-.485.256-.98.328-1.48.09-.659.11-1.324.061-1.985-.048-.533-.117-.882-.117-.882s-.053.347-.187.852a8.829 8.829 0 01-1.701 3.269l-.039.047-.737-.051a9.4 9.4 0 000-.934 11.348 11.348 0 00-.212-1.808c-.082-.482-.19-.788-.19-.788s-.029.325-.116.8a10.69 10.69 0 01-.444 1.68c-.12.33-.256.654-.41.971-.436-.012-.88-.013-1.318-.011a9.779 9.779 0 01-2.042-3.126c-.214-.518-.318-.884-.318-.884s-.015.377.021.952c.048.71.167 1.413.356 2.1.096.349.215.69.34 1.015l-.25.011a10.502 10.502 0 01-2.815-4.492c.01.37.04.737.089 1.103a10.944 10.944 0 001.1 3.524l-.217.037-.392-.271a11.415 11.415 0 01-3.478-4.001 9.352 9.352 0 01-.385-.837l-.129-.32.057.337.153.903a12 12 0 00.98 2.638c.327.632.71 1.235 1.14 1.804l-.131.023-.07-.052a13.608 13.608 0 01-4.377-5.584l-.15-.363.066.39c.042.246.102.601.233 1.016a14.05 14.05 0 001.182 2.956c.37.685.794 1.341 1.267 1.963-.178.03-.355.06-.523.116l-.394-.316a13.008 13.008 0 01-1.06-.998 14.063 14.063 0 01-1.066-1.303c-.62-.872-1.12-1.82-1.49-2.818a7.291 7.291 0 01-.19-.572c-.049-.172-.102-.32-.13-.429l-.103-.392s.024.144.022.406c.003.129.014.277.033.445.02.168.044.372.075.61.167 1.102.477 2.179.926 3.202.247.555.53 1.095.847 1.615.235.366.466.71.695 1.014-.297.084-.594.17-.89.259a6.172 6.172 0 01-.75-.486c-.449-.335-.918-.71-1.375-1.12a24.847 24.847 0 01-2.365-2.305c-.61-.676-.977-1.164-.977-1.164s.265.546.725 1.333a26.054 26.054 0 003.068 4.197l.085.085-.699.258a10.745 10.745 0 01-3.303-2.304c-.243-.247-.429-.464-.571-.616l-.2-.245s.05.104.127.285a11.197 11.197 0 001.912 2.855c.195.21.402.414.612.609l-.256.11a29.938 29.938 0 01-5.208-4.15c-.663-.658-1.082-1.12-1.082-1.12s.32.533.847 1.305c.646.95 1.347 1.863 2.098 2.738.585.703 1.23 1.37 1.81 1.947l-.494.255a15.394 15.394 0 01-1.481-.475 26.43 26.43 0 01-1.824-.764 19.487 19.487 0 01-3.192-1.921c-.416-.304-.742-.578-.97-.769l-.357-.31s.11.13.295.365.468.557.825.93a19.73 19.73 0 002.886 2.509 22.18 22.18 0 001.753 1.119l.422.23-.45.27a19.449 19.449 0 01-.903-.126c-.645-.12-1.28-.283-1.899-.49a12.158 12.158 0 01-3.285-1.698 6.326 6.326 0 01-.539-.427c-.163-.135-.304-.251-.41-.355l-.34-.325.279.376c.086.125.203.263.342.425.147.183.305.358.472.524.894.93 1.933 1.717 3.08 2.337.533.29 1.086.544 1.655.761l-.514.353-.607-.276a19.678 19.678 0 01-3.3-1.952 19.516 19.516 0 01-2.873-2.58 14.405 14.405 0 01-.834-.977l-.305-.399.228.412c.142.256.365.665.655 1.111a19.344 19.344 0 002.468 3.104c.509.522 1.05 1.017 1.578 1.464.529.447 1.046.828 1.506 1.143l-.182.139-.168-.057a26.662 26.662 0 01-2.281-.926 25.62 25.62 0 01-2.5-1.313 26.161 26.161 0 01-4.988-3.835c-.203-.21-.392-.385-.558-.542l-.457-.49.39.538c.124.177.283.403.463.611.18.209.392.493.639.794a26.38 26.38 0 003.899 3.727 28.042 28.042 0 002.411 1.665c.6.35 1.183.702 1.72.98l-.277.237-.239-.059a24.93 24.93 0 01-2.4-.748 27.78 27.78 0 01-2.651-1.156 24.06 24.06 0 01-4.53-2.984c-.288-.24-.545-.462-.763-.673-.218-.211-.419-.38-.558-.541l-.479-.483.418.538c.132.171.301.373.5.605.197.233.423.488.679.76a24.271 24.271 0 004.239 3.583c.835.552 1.7 1.06 2.592 1.523.655.34 1.275.609 1.852.85l-.156.147a18.171 18.171 0 01-1.323-.145 16.427 16.427 0 01-1.718-.386 14.198 14.198 0 01-4.018-1.867l-.349-.238.294.302c.26.268.533.523.82.763.877.747 1.843 1.39 2.879 1.915.22.112.446.213.668.31a18.107 18.107 0 01-1.456-.33 23.772 23.772 0 01-2.732-.94 21.9 21.9 0 01-2.557-1.316 19.393 19.393 0 01-2.08-1.45l-.417-.336-.361-.317a6.63 6.63 0 01-.557-.533l-.488-.48.569.575c.132.176.306.372.508.599l.323.365c.118.12.243.252.378.386a19.03 19.03 0 001.925 1.717 22.968 22.968 0 002.49 1.666c.881.492 1.793.933 2.73 1.318.77.302 1.557.565 2.356.787l-.177.197h-.191a21.335 21.335 0 01-2.496-.154 21.83 21.83 0 01-2.827-.567 20.87 20.87 0 01-2.726-.963 18.365 18.365 0 01-2.249-1.175l-.453-.28-.397-.274c-.248-.17-.47-.318-.633-.457l-.538-.423.483.482c.153.159.35.333.58.533.111.103.232.209.363.322.131.113.275.22.42.334a18.21 18.21 0 002.113 1.446 21.35 21.35 0 002.693 1.348 19.37 19.37 0 001.56.556 25.017 25.017 0 01-2.337-.46 24.898 24.898 0 01-2.796-.88 20.97 20.97 0 01-2.335-1.079l-.477-.253-.42-.249c-.265-.158-.517-.291-.679-.421l-.578-.38.542.444c.165.144.38.31.621.495l.392.299.45.311c.712.5 1.456.958 2.229 1.368.891.472 1.812.89 2.757 1.255.956.357 1.933.66 2.926.907.564.13 1.106.24 1.616.335-.553.04-1.17.063-1.822.074a27.021 27.021 0 01-2.639-.144 23.318 23.318 0 01-4.847-1.06c-.326-.102-.62-.21-.878-.301a7.18 7.18 0 01-.67-.266l-.574-.245.521.322c.171.102.387.218.633.344.245.125.514.282.833.427a24.066 24.066 0 004.8 1.712c.66.154 1.326.276 1.983.38-.861.097-1.78.19-2.694.223a14.649 14.649 0 01-4.829-.535 8.725 8.725 0 01-1.503-.607c-.177-.083-.304-.17-.397-.221l-.14-.08.13.1c.08.063.2.16.363.272a8.68 8.68 0 001.421.81 15.168 15.168 0 004.9 1.199c1.209.11 2.417.131 3.483.14-.39.12-.81.237-1.258.349-1.596.367-3.24.48-4.869.333a14.85 14.85 0 01-2.132-.352l-.443-.105-.393-.118a8.917 8.917 0 01-.638-.212l-.548-.205.513.278c.161.095.369.19.607.299l.375.175.43.17c.69.269 1.4.488 2.123.656.841.187 1.696.314 2.557.378.65.041 1.302.045 1.954.012-.526.233-1.076.457-1.65.654-.684.225-1.38.413-2.084.565a18.75 18.75 0 01-1.884.287c-.277.047-.534.045-.76.057-.228.011-.43.028-.594.024l-.546.002.511.071c.164.027.363.047.59.067.228.02.476.05.772.063a18.954 18.954 0 004.195-.232c-.26.089-.52.178-.787.26a25.723 25.723 0 01-4.332.94c-.599.102-1.113.126-1.469.145l-.559.036.559.046a26.316 26.316 0 006.018-.248l.29-.05-.201.08c-1.101.39-2.242.661-3.402.81-.386.054-.774.09-1.163.107l-.463.024.44.06c.282.039.686.083 1.176.108.672.035 1.346.03 2.019-.017-.327.14-.659.274-.996.407a34.72 34.72 0 01-3.539 1.154c-.992.263-1.664.4-1.664.4s.682-.021 1.713-.11a35.045 35.045 0 003.768-.548l.181-.03-.507.202a25.423 25.423 0 01-4.05 1.2c-.572.12-1.052.178-1.388.235l-.527.09.534.008c.341.001.83-.005 1.395-.033a26.107 26.107 0 004.297-.593c.304-.051.602-.142.896-.223l-.227.12c-.812.397-1.647.75-2.501 1.054a19.14 19.14 0 01-4.76 1.144c-.164.015-.33.022-.496.021zm51.017-1.187l.63-.558a17.08 17.08 0 003.003-3.737c.38-.628.717-1.278 1.01-1.947.157-.315.25-.656.374-.965.125-.31.234-.63.305-.954.072-.323.151-.625.22-.939a7.08 7.08 0 00.186-.883c.065-.584.163-1.133.187-1.65a30.26 30.26 0 00.026-1.448c0-.442-.076-.862-.11-1.23l-.055-.518-.075-.439c-.046-.276-.11-.509-.15-.7l-.125-.57s.002.207.002.595c.001.198.006.45.01.72.023.136.008.292.002.45-.006.16-.028.33-.04.508-.032.361-.055.753-.1 1.175-.045.423-.15.882-.235 1.37-.085.488-.258.986-.396 1.52-.103.355-.243.717-.385 1.088a15.587 15.587 0 00-1.49-12.102c.982.285 2.086.657 3.183 1.07a45.158 45.158 0 014.096 1.827c1.101.549 1.814.956 1.814.956s-.645-.504-1.65-1.204a46.945 46.945 0 00-3.843-2.397 49.363 49.363 0 00-1.425-.755c.8.234 1.566.483 2.294.756 1.405.497 2.666 1.05 3.783 1.555l1.53.76 1.3.682c.77.433 1.398.755 1.81 1.005l.637.343-.517-.512a34.122 34.122 0 00-1.525-1.4l-1.145-.943c-.357-.291-.761-.58-1.186-.886a48.28 48.28 0 016.927 4.517c4.208 3.26 5.87 4.47 7.195 5.161-1.502.94-3.901 2.379-6.931 4.006l.418-.287a57.399 57.399 0 002.737-1.898c.744-.54 1.317-.99 1.71-1.29l.586-.478s-.938.497-2.575 1.337c-.408.21-.86.435-1.364.682-.504.248-1.028.517-1.607.796-.578.278-1.185.58-1.84.875-.655.296-1.32.643-2.041.959-1.43.657-2.986 1.335-4.634 2.052-.83.338-1.678.703-2.553 1.05-.875.346-1.75.693-2.68 1.044l-2.793 1.014-2.505.817zm-17.839-.586l-.041-1.4-.98.743.692-2.691-1.797 1.873c-.016-.092.023-.193.038-.295.078-.456.201-.904.367-1.338a7.52 7.52 0 00-1.214.886l-.048.044.018-.142c.057-.41.145-.815.261-1.212a9.141 9.141 0 00-1.1.75l.897-2.091-1.843 1.412.023-.053c.19-.407.41-.801.655-1.18-.438.138-.867.303-1.285.493l.08-.221c.13-.336.284-.663.46-.98a8.184 8.184 0 00-1.112.274c-.095.016-.186.059-.279.093a14.93 14.93 0 011.562-1.748c-.572.12-1.137.273-1.691.457a6.73 6.73 0 00-.398.135l-.004-.026c.153-.258.276-.531.366-.815-.28.03-.562.03-.84-.002l-.163-.022.829-1.087-.864.056.104-.103c.35-.334.719-.646 1.107-.936-.505-.002-1.01.027-1.512.085l-.064.01 1.105-.782-1.578-.111 2.181-1.15-1.713-.3.822-.496-.781-.34 2.413-.193-1.784-.749a7.007 7.007 0 001.024-.407 6.306 6.306 0 01-.898-.502l1.689-.34-.76-.494 1.21.011-.84-.687 1.758.1-.824-.763 1.599.18-1.257-.973 1.515.267-.653-.828 1.447.08-.54-.846 1.51.646-.74-1.273 1.02.202-.148-.683c.093.03.192.058.291.095.33.12.648.267.952.438a6.569 6.569 0 00-.19-.955l1.161.597-.327-1.135 1.245.542.088-.858.87.782.099-1.014.566.806.06-1.24.663.991.506-.928.513 1.153.514-1.318.47 1.007.572-1.36.314.781.601-.945.44.86.46-.678.384.837.635-.884.482 2.128.792-1.825.265 1.344.83-1.33.39 1.087.854-.938-.032 1.218 1.221-1.059-.313 1.185 1.1-.506c-.065.137-.134.28-.198.426-.294.655-.54 1.33-.737 2.018.472-.524.98-1.017 1.52-1.475.224-.191.455-.37.671-.528l-.099.409.7-.227-.655 1.234 1.53-.886-1.394 1.634 2.163-.818-1.154 1.179 1.77-.323-.93.987 1.445-.068.023.136-2.574 1.337 2.652-.08-1.46.699 1.87.319-.224.106c-.576.268-1.187.494-1.187.494s.552.226 1.16.421l-.87.382.701.472-2.007.25 1.88.705-.852.207.829.676-.802.172.528.528-1.618.067 1.738 1.058-1.202.01.736.736-1.115.004.751.797-1.62-.52.631.967-1.02-.206 1.006 1.304-1.11-.209.62 1.095-1.042-.31.66 1.136-1.504-.606.555.88-1.222-.627.844 1.457-.782-.318.177.52-1.255-.906.51 1.325-1.08-.692.4 1.317-.636-.397.026 1.177-1.29-1.446.34 2.008c-.14-.166-.297-.347-.461-.517a14.9 14.9 0 00-1.152-1.095c.111.497.196.998.255 1.504.022.131.043.254.04.38L48.04 37.82l.175 1.94-.675-.846-.168.994-1.062-2.413-.29 2.673-.79-1.908-.58 2.555-.878-2.426-.453 2.205a2.025 2.025 0 01-.092-.214 7.048 7.048 0 01-.36-1.134c-.218.33-.41.675-.577 1.031l-.508-2.308-.874 2.474a3.726 3.726 0 01-.123-.502 6.579 6.579 0 01-.113-1.387c-.327.384-.61.8-.845 1.243l-.081.153a2.152 2.152 0 01-.044-.48 9.564 9.564 0 01.038-1.512c-.36.4-.685.828-.974 1.279-.095.21-.185.365-.272.515l.012.016zm-21.863-.937a63.833 63.833 0 013.61-5.751c-.125.224-.236.446-.354.66l-.633 1.337c-.194.399-.338.761-.475 1.082l-.33.809c-.172.444-.268.676-.268.676l.447-.585c.286-.382.694-.951 1.233-1.651l.896-1.162 1.075-1.345c.384-.485.806-.971 1.255-1.489l.687-.797.663-.717-.143.232c-1.597 2.615-2.913 5.35-2.913 5.35s1.737-2.509 3.708-4.817a57.834 57.834 0 012.9-3.197 15.395 15.395 0 002.832 8.813c-.25-.296-.496-.583-.704-.877-.302-.458-.616-.879-.875-1.304-.258-.425-.452-.825-.672-1.216-.22-.39-.334-.755-.482-1.081a24.699 24.699 0 01-.206-.47c-.062-.148-.101-.295-.147-.427a41.835 41.835 0 00-.226-.674c-.128-.37-.194-.567-.194-.567s.034.202.063.594c.033.193.052.442.084.716l.074.438c.025.145.057.333.123.507.088.355.18.759.295 1.19.115.431.317.848.501 1.358.184.51.463.968.72 1.497.135.268.29.527.463.774.166.264.341.528.516.814.174.286.41.517.602.8.208.274.43.537.666.789a17.576 17.576 0 005.663 4.05l1.183.48.04-.007h-.21a41.443 41.443 0 01-5.519-.337c-.875-.095-1.707-.292-2.534-.41-.827-.116-1.59-.352-2.34-.505-.75-.152-1.47-.404-2.123-.623l-.988-.324-.493-.151-.445-.177a36.673 36.673 0 01-1.634-.661l-.723-.329-.646-.31c-.864-.41-1.701-.87-2.507-1.379 0 0 .176.187.553.51.533.465 1.091.9 1.673 1.305l.598.417.675.427c.463.309.996.589 1.554.904l.431.234.459.224.956.465.328.147a34.23 34.23 0 01-8.742-4.259z" fill="#fff"/><path d="M22.327 39.176c.641.257 1.401.525 2.223.8.821.276 1.684.576 2.564.838.88.261 1.756.55 2.587.775.832.224 1.613.452 2.289.613.676.16 1.231.323 1.63.414l.62.165-.643-.022c-.41-.025-.997-.07-1.699-.163a47.532 47.532 0 01-2.368-.392c-.863-.16-1.768-.431-2.666-.69-.898-.258-1.76-.603-2.574-.948-.815-.344-1.52-.707-2.153-1.024-.632-.317-1.11-.628-1.459-.84l-.528-.361.602.218c.374.167.92.39 1.575.617zm41.072-2.492c.812-.363 1.732-.798 2.757-1.283 1.024-.485 2.082-.962 3.148-1.48 1.065-.519 2.166-.994 3.148-1.48.982-.487 1.947-.907 2.744-1.299.797-.392 1.483-.702 1.955-.917l.746-.334-.673.461c-.42.283-1.06.685-1.817 1.155-.756.471-1.675.97-2.647 1.513-.973.543-2.053 1.055-3.127 1.58-1.073.524-2.17.963-3.209 1.396a46.078 46.078 0 01-2.86 1.08c-.844.286-1.562.512-2.059.664l-.792.228.736-.363a74.56 74.56 0 001.95-.921zm9.299-5.299l-1.852.976-2.157 1.046-2.2.955-1.95.78-1.407.491-.54.169.481-.298 1.275-.744 1.851-.976 2.157-1.046 2.2-.955 1.95-.78 1.402-.495.54-.168-.476.301-1.274.744zm-42.931 9.408l-1.41-.338-1.582-.486-1.543-.595-1.306-.6-.9-.487-.333-.205.39.069 1 .227 1.391.387 1.57.5 1.54.574 1.326.555.92.44.348.184-.395-.046-1.016-.18z" fill="#fff"/></svg>