<svg width="52" height="52" fill="none" xmlns="http://www.w3.org/2000/svg"><path d="M26.526.826C12.486.826 1.052 12.3 1.052 26.39s11.433 25.564 25.474 25.564C40.566 51.954 52 40.48 52 26.39 52.045 12.3 40.612.826 26.526.826zm24.33 27.537a23.566 23.566 0 01-2.744 9.271c-1.417 2.708-3.338 5.003-5.305 6.793-2.012 1.79-4.116 3.075-6.128 3.947a23.649 23.649 0 01-5.305 1.652c-1.51.276-2.744.321-3.568.367h-1.28s.457-.046 1.28-.046c.824-.091 2.013-.183 3.522-.55 1.51-.322 3.293-.918 5.168-1.836 1.92-.918 3.933-2.249 5.854-4.039 1.875-1.79 3.659-4.039 4.985-6.7 1.326-2.663 2.195-5.738 2.47-8.95.228-3.259-.183-6.61-1.327-9.776-.823-2.34-2.104-4.544-3.613-6.517a30.1 30.1 0 011.144 6.196l-.138-.138c-.274-.23-.594-.321-.777-.321-.092 0-.183.046-.229.046-.046 0-.091.046-.091.046h.091c.046 0 .137.045.183.091.137.092.32.23.503.46.137.229.275.55.32.871v.506c0 .183-.045.32-.091.504a1 1 0 01-.229.367.54.54 0 01-.32.184c-.046 0-.229 0-.32-.046-.137-.046-.229-.138-.366-.23-.229-.183-.366-.413-.457-.55a1.299 1.299 0 01-.137-.276v.322c0 .183.045.504.228.78.092.137.229.321.412.459.183.137.411.275.732.275.228 0 .594-.092.777-.275l.046-.046a26.79 26.79 0 01-.549 4.497c.32 0 .549-.137.732-.275.183-.137.32-.275.411-.413.092-.138.183-.23.229-.275l.091-.092v.183a1.2 1.2 0 01-.137.505 1.942 1.942 0 01-.503.597 1.274 1.274 0 01-.823.275 1.27 1.27 0 01-.823-.275 1.739 1.739 0 01-.458-.597 1.399 1.399 0 01-.137-.505v-.183s-.183.092-.228.505c0 .23 0 .505.228.872.183.321.595.688 1.19.78-.092.275-.138.55-.23.826a1.15 1.15 0 00-.914.413c-.412.505-.32 1.285.183 1.698a25.818 25.818 0 01-1.326 2.8c.457.046.823-.092 1.097-.23.366-.183.595-.413.778-.596.183-.184.274-.321.366-.367.091-.092.137-.092.137-.092s-.046.092-.092.321c-.091.184-.228.46-.457.734-.229.276-.549.505-.96.689a1.458 1.458 0 01-.64.138c-.23 0-.458 0-.687-.092-.228-.046-.457-.184-.64-.276-.183-.137-.366-.275-.503-.459a2.277 2.277 0 01-.457-1.101c-.046-.367-.046-.642 0-.826.045-.184.045-.321.045-.321s-.045 0-.091.091c-.092.092-.183.23-.275.551-.045.276-.137.735.092 1.285.091.276.274.597.549.872.274.276.64.551 1.143.689-.183.321-.412.642-.595.964h-.411c-.778.137-1.28.78-1.19 1.422 0 .046.047.138.047.184-.55-.138-1.052-.643-1.19-1.423-.228-1.377-1.417-4.222-2.515-4.819-1.189-.643-2.15.918-1.51 1.423 1.464 1.101.733 3.213.87 5.048.045.735.411 1.331.731 1.882-.731.23-1.189.918-1.051 1.56.045.368.274.643.594.827a25.35 25.35 0 01-1.326 1.01v-.138a3.272 3.272 0 00-.458-1.469c-.228-.367-.502-.642-.731-.78-.503-.367-.87-.413-1.052-.413h-.275s.046 0 .138.046c.091.045.228.091.411.183.32.184.824.597 1.144 1.194.32.596.411 1.468.091 2.294-.274.826-.96 1.56-1.784 1.974-.823.413-1.829.459-2.606.138-.824-.322-1.418-.964-1.647-1.607a2.68 2.68 0 01-.137-1.652 2.86 2.86 0 01.137-.46c.046-.09.046-.137.046-.137s-.046.046-.183.23c-.091.183-.32.505-.366 1.101-.046.276-.046.643.092 1.102.091.413.366.872.777 1.33.092.092.183.184.32.276-.503.184-1.006.321-1.509.459a2.085 2.085 0 00-.503-.78 2.412 2.412 0 00-.64-.46c-.412-.183-.64-.183-.824-.183a.553.553 0 00-.228.046s.046 0 .091.046c.092.046.183.092.32.138.275.137.595.367.915.734.137.184.274.413.366.688.091.276.046.597-.046.873-.229.596-.869.963-1.509 1.101-1.28.275-2.698-.321-3.247-1.147-.275-.413-.366-.826-.32-1.148 0-.138.045-.275.091-.321l.046-.092s-.046 0-.183.138c-.091.137-.274.367-.274.826 0 .092 0 .23.045.367h-.914a.785.785 0 000-.459c-.138-.734-.96-1.239-1.83-1.055-.045 0-.137.046-.183.046 0-.322.092-.643.275-.873.823-1.193 3.201-2.065 3.293-4.13.045-1.515-6.403-1.01-6.403 1.423.046 2.386-1.052 2.203-1.875 3.534a2.887 2.887 0 01-.412.55c-.595-.183-1.143-.321-1.6-.505.045-.045.045-.091.09-.137.184-.322.046-.78-.365-1.01-.366-.23-.869-.138-1.052.184-.046.091-.046.137-.091.23a23.9 23.9 0 01-7.5-17.441v-1.285c.045-.826.09-2.066.365-3.58a23.86 23.86 0 011.646-5.324 22.945 22.945 0 013.934-6.104c1.783-2.02 4.024-3.901 6.768-5.324a23.362 23.362 0 019.239-2.754c3.338-.275 6.905.092 10.244 1.331a24.38 24.38 0 019.01 5.737c2.515 2.57 4.527 5.691 5.716 9.042.961 3.212 1.327 6.792 1.052 10.142z" fill="#fff"/><path d="M32.974 33.045a3.904 3.904 0 00-.777-.918 2.66 2.66 0 00-.869-.459 5.67 5.67 0 00-.732-.184h-.64s.046 0 .183.046c.091 0 .274.046.457.092s.412.138.64.276c.23.137.458.32.686.55.23.23.412.505.55.826.137.322.228.689.228 1.056v.275c0 .092 0 .23-.046.322l-.137.55a2.735 2.735 0 01-.64.964 2.724 2.724 0 01-.96.643c-.367.137-.732.183-1.144.183a2.7 2.7 0 01-1.052-.23 2.597 2.597 0 01-.823-.55 3.616 3.616 0 01-.549-.688 2.456 2.456 0 01-.274-.643c-.046-.184-.092-.321-.092-.459a.468.468 0 00-.046-.183v.643c.046.183.046.458.183.733.092.276.23.551.458.872a3.067 3.067 0 002.195 1.194c.457.046.96 0 1.418-.184a4.567 4.567 0 001.28-.78c.366-.367.64-.826.778-1.285.091-.23.137-.46.183-.735v-.688c-.092-.459-.275-.872-.458-1.24zM19.483 31.53c-.092-.688-.503-1.193-.915-1.514a7.96 7.96 0 00-.594-.321c-.183-.046-.366-.092-.503-.092h-.412s.046 0 .091.046c.092 0 .183.046.275.091.228.092.549.276.823.597.137.138.274.321.366.55.091.23.137.46.137.69v.413a.86.86 0 01-.091.32c-.092.23-.23.46-.366.597a1.74 1.74 0 01-.595.413 1.89 1.89 0 01-1.418 0c-.228-.092-.411-.183-.548-.321a2.887 2.887 0 01-.366-.413 1.853 1.853 0 01-.229-.413c-.046-.138-.091-.23-.091-.276 0-.091-.046-.091-.046-.091v.413c0 .137.046.321.091.505.046.183.183.413.32.596a2.3 2.3 0 00.595.551c.274.138.549.275.915.321.32.046.686 0 1.006-.092.32-.091.64-.32.915-.596.274-.276.457-.597.548-.918.046-.184.092-.367.092-.55v-.23c.046-.138 0-.184 0-.276zm3.156-5.599c.228.046.503.046.731-.046.229-.092.503-.23.686-.413a1.74 1.74 0 00.412-.688c.046-.138.046-.23.046-.413v-.322c-.092-.505-.366-.872-.686-1.055a1.578 1.578 0 00-.778-.23c-.183 0-.274.046-.274.046s.045 0 .091.046c.046 0 .137.046.183.092.137.092.366.23.503.413.183.23.275.505.275.78v.23c0 .046-.046.137-.046.183a1 1 0 01-.229.367.996.996 0 01-.366.23 1.331 1.331 0 01-.411.092c-.137 0-.275 0-.412-.046-.137-.046-.274-.092-.366-.184-.229-.138-.366-.367-.457-.505-.046-.091-.092-.137-.092-.183 0-.046-.045-.092-.045-.092v.092c0 .046-.046.137-.046.23 0 .183.046.504.274.78.092.137.229.275.412.412.091.092.32.184.595.184zM9.833 17.716c.229.091.549.091.823.046a2.644 2.644 0 001.418-.918c.183-.23.366-.46.457-.735.137-.23.229-.55.229-.78.091-.55-.046-1.101-.32-1.423a.869.869 0 00-.503-.32c-.183-.047-.32-.047-.458-.047a.702.702 0 00-.365.092h.365c.092 0 .275.046.366.138.137.091.275.183.366.321.229.321.274.78.183 1.24a4.052 4.052 0 01-.229.688c-.091.23-.274.459-.411.642-.366.321-.778.643-1.235.735-.229.045-.457.091-.64.045a1.089 1.089 0 01-.503-.275c-.275-.275-.32-.597-.366-.826v-.367.092c0 .045-.046.137-.046.275 0 .23 0 .642.274 1.01.138.137.32.32.595.367zm0-7.436c0-.091.046-.091.046-.091s-.046.046-.046.092c-.092.045-.137.137-.183.275-.046.138-.137.321-.137.505-.046.23-.046.459.091.734.092.276.32.505.64.689.138.091.32.137.504.183a.411.411 0 00.228.046h.275c.686 0 1.372-.275 1.92-.688.275-.184.55-.413.778-.689.091-.138.229-.275.32-.413a2.16 2.16 0 00.229-.459c.137-.275.228-.596.274-.918a1.372 1.372 0 00-.183-.872c-.137-.275-.32-.413-.503-.55a1.189 1.189 0 00-.503-.138c-.32 0-.457.046-.457.046s.045 0 .091.046c.092 0 .183.046.32.091a.996.996 0 01.366.23.953.953 0 01.275.459 1.54 1.54 0 010 .642c-.046.23-.138.46-.275.689-.091.137-.137.23-.229.321-.09.092-.182.23-.274.321-.183.184-.412.413-.64.551a3.956 3.956 0 01-1.51.643h-.365c-.092 0-.229 0-.32-.046a.839.839 0 01-.458-.321c-.228-.322-.228-.735-.183-.964-.137-.23-.091-.322-.091-.413zM6.906 27.813c.183-.322.274-.689.366-1.102a4.89 4.89 0 000-1.147l-.138-.55c-.045-.093-.091-.184-.091-.276-.046-.092-.091-.138-.137-.23-.183-.367-.458-.596-.778-.78-.32-.184-.64-.275-.914-.275-.32 0-.55.091-.778.183-.228.092-.366.23-.457.322-.229.275-.32.413-.32.413s.045-.046.091-.046c.046-.046.183-.092.32-.184.138-.046.275-.138.503-.183.183-.046.412-.046.64 0 .23.045.412.137.64.275.184.138.367.367.458.596.046.092.092.138.092.23 0 .046.045.138.045.184.046.137.046.275.092.413a2.11 2.11 0 01-.046.918 2.776 2.776 0 01-.274.872c-.137.275-.275.55-.458.734-.228.23-.365.367-.594.505a1.287 1.287 0 01-.686.183 2.31 2.31 0 01-.595-.091 4.02 4.02 0 01-.457-.276c-.137-.092-.229-.138-.274-.23l-.092-.091s0 .046.046.138c.046.091.091.183.183.32.091.138.228.276.411.414.183.138.412.275.732.321.275.046.64.046.96-.092.32-.091.64-.32.87-.55a3.03 3.03 0 00.64-.918zM30.46 8.261c.456 0 .96 0 1.417-.092.457-.091.915-.23 1.372-.459a2.53 2.53 0 001.006-.963c.091-.23.183-.46.183-.689 0-.23-.046-.413-.137-.596a1.928 1.928 0 00-.595-.827c-.229-.183-.411-.32-.594-.413-.183-.091-.32-.137-.412-.183-.091-.046-.137-.046-.137-.046s.046.046.137.092c.091.046.229.183.366.275.137.138.32.321.457.505.137.23.32.459.366.734.046.276.046.597-.137.826-.183.276-.457.46-.823.643-.32.138-.732.23-1.144.321-.411.046-.823.092-1.28.046-.412 0-.87-.092-1.28-.183a9.002 9.002 0 01-1.19-.368l-.274-.137-.275-.138a4.02 4.02 0 01-.457-.275 3.445 3.445 0 01-.686-.735c-.137-.275-.229-.55-.183-.78.046-.23.137-.459.229-.597.091-.137.228-.275.274-.367.092-.092.137-.092.137-.092s-.045.046-.137.092a1.728 1.728 0 00-.777.918c-.092.276-.092.689.091 1.056.137.367.412.688.686.964.137.137.32.275.503.413a.957.957 0 01.275.183c.091.046.183.092.32.184.411.183.823.367 1.28.505.503.091.96.183 1.418.183zm7.682 11.979c0-.138.046-.275.046-.413v-.367c0-.138-.046-.23-.046-.367-.183-.964-.731-1.699-1.326-2.112a2.662 2.662 0 00-.869-.459 5.785 5.785 0 00-.732-.183h-.64s.046 0 .183.046c.092 0 .274.091.457.137.183.092.412.184.64.322.23.137.458.32.687.55a3.19 3.19 0 01.914 1.882v.596c-.045.184-.045.368-.091.552-.092.367-.32.688-.595.963a2.61 2.61 0 01-.96.597 2.285 2.285 0 01-.549.092h-.594c-.366-.046-.732-.138-1.052-.322-.32-.137-.595-.367-.824-.596a3.613 3.613 0 01-.548-.689c-.138-.23-.229-.459-.32-.596-.046-.184-.138-.322-.138-.46-.045-.091-.045-.137-.045-.137v.643c.045.183.091.459.183.734.091.275.274.55.503.826a3.612 3.612 0 002.149 1.285c.092 0 .229.046.32.046h.366c.137 0 .229 0 .366-.046.137-.046.229-.046.366-.092.503-.137.96-.413 1.326-.78.366-.367.64-.826.778-1.33 0-.047 0-.184.045-.322zm-25.474 4.452c.275-.046.595-.092.824-.276.274-.137.503-.32.685-.55.184-.23.366-.505.458-.78.091-.276.137-.597.091-.872a2.265 2.265 0 00-.274-.78c-.137-.23-.32-.368-.549-.506-.412-.229-.777-.229-1.006-.229-.137 0-.229.046-.274.046-.046 0-.092.046-.092.046h.092a.8.8 0 01.274.046c.229.046.549.137.823.367.275.23.503.596.503 1.055 0 .23-.046.46-.091.643-.092.23-.183.413-.366.597-.32.367-.732.596-1.19.688-.136.046-.228.046-.32.046-.09 0-.228 0-.32-.046a2.794 2.794 0 01-.548-.23c-.32-.183-.503-.504-.595-.688-.091-.23-.091-.367-.091-.367v.367c.046.23.137.597.503.918.183.138.366.275.64.367.137.046.274.092.412.092a1.4 1.4 0 00.411.046zM35.078 7.71l.046-.045-.046.046c-.091 0-.183 0-.274.091a1.267 1.267 0 00-.275.367c-.045.184-.091.368-.045.597.045.23.137.413.274.643.046.091.137.183.229.275l.274.275a3.29 3.29 0 001.372.735c.275.046.549.091.823.091.138 0 .275 0 .412-.045.091 0 .137-.046.229-.046.091-.046.137-.046.183-.092.274-.138.503-.367.594-.643a.988.988 0 00-.046-.734 1.702 1.702 0 00-.594-.734.998.998 0 01-.229-.138c-.046-.046-.091-.046-.091-.046s0 .046.045.092c.046.046.092.138.138.23.091.183.228.458.274.734 0 .137 0 .275-.091.413-.046.092-.183.183-.32.23-.046.045-.092.045-.138.045h-.411c-.183 0-.412-.046-.595-.092a3.168 3.168 0 01-.594-.23 3.405 3.405 0 01-.55-.32c-.045-.046-.182-.138-.228-.184l-.183-.184a1.085 1.085 0 01-.274-.413c-.138-.275-.138-.504-.046-.688.046-.092.137-.184.137-.23zM13.446 38.323c-.229-.321-.503-.505-.686-.643-.092-.045-.183-.091-.229-.091-.046 0-.091-.046-.091-.046l.228.23c.138.137.32.412.458.688.137.32.274.688.274 1.101 0 .092 0 .23-.046.275 0 .046-.045.138-.045.184 0 .046 0 .092-.046.092-.092.183-.183.275-.32.321a.932.932 0 01-.503 0c-.092-.046-.183-.092-.275-.092l-.137-.091-.137-.092c-.32-.23-.595-.551-.732-.872a2.554 2.554 0 01-.32-.78c-.046-.184-.046-.322-.046-.322s0 .046-.045.092c0 .046-.046.138-.046.23 0 .229 0 .55.137.917.137.368.366.78.732 1.102l.137.138.137.091c.091.092.229.138.366.184.274.092.595.138.915 0 .32-.092.549-.367.686-.643.045-.045.045-.137.091-.23 0-.09 0-.137.046-.183v-.413c-.046-.413-.274-.826-.503-1.147zm-2.561-1.561c.046-.23 0-.413 0-.596-.046-.735-.366-1.377-.686-1.836-.183-.23-.32-.413-.503-.597-.183-.137-.32-.275-.458-.367a2.604 2.604 0 00-.32-.183c-.091-.046-.137-.046-.137-.046l.091.091c.092.046.138.138.275.23.229.23.503.597.732 1.056.228.458.457 1.055.457 1.698 0 .137 0 .32-.046.459 0 .091-.045.183-.045.23-.046.045-.046.137-.092.183-.137.275-.32.459-.595.55a1.405 1.405 0 01-.868 0 1.625 1.625 0 01-.412-.183l-.229-.138-.183-.138c-.503-.367-.869-.871-1.143-1.33a2.458 2.458 0 01-.274-.643c-.046-.184-.046-.367-.092-.505 0-.138-.046-.275-.046-.367v-.138s0 .046-.045.138c0 .092-.046.23-.046.367 0 .184 0 .367.046.597.045.23.091.505.183.734a3.61 3.61 0 001.097 1.606l.229.184.228.138c.183.091.32.183.55.275.365.138.823.184 1.28.046.412-.138.777-.505.915-.918a.664.664 0 00.091-.321c0-.092.046-.184.046-.276zm14.269-20.239c.366-1.01 1.372-1.561 3.704-1.882 2.333-.322 4.94 1.147 7.867.642 3.155-.55-.458-1.377-4.208-2.524-3.704-1.147-3.933.138-6.814-.23-2.836-.367-4.3.276-4.71 1.974-.184.826-3.431-.459-3.431 1.101 0 .827.412 1.745 2.47 2.663 1.966.917 4.756-.735 5.122-1.744zM10.473 31.714c.595-.092.915-.918.732-1.836-.183-.918-.777-1.56-1.372-1.423-.595.092-.915.918-.732 1.836.183.918.778 1.515 1.372 1.423zm1.235 1.836c.274-.046.457-.46.366-.918-.092-.46-.412-.78-.686-.734-.275.045-.458.458-.366.917.091.46.412.78.686.735zm2.149 3.717c-.228.138-.183.551.046.872.229.322.595.46.778.322.228-.138.183-.551-.046-.872-.229-.322-.595-.46-.778-.322zm11.571-.229c-.869.138-1.509.872-1.372 1.652.137.734.96 1.24 1.83 1.056.869-.138 1.509-.872 1.372-1.653-.137-.734-.96-1.193-1.83-1.055zm-2.744-.184c-.457.092-.731.46-.686.826.046.367.458.597.915.551.457-.092.732-.459.686-.826-.091-.367-.503-.597-.915-.55zm2.013-1.194a.616.616 0 00-.55.69c.046.32.412.504.733.412a.616.616 0 00.548-.688c-.046-.321-.366-.505-.732-.413z" fill="#fff"/><path d="M29.133 15.972c-.87-.689-2.104-.643-2.744.183-.686.826-.55 2.066.32 2.754.869.688 2.104.643 2.744-.184.686-.826.549-2.019-.32-2.753zm1.555-.046a.897.897 0 00.137 1.285c.412.321 1.006.275 1.326-.092a.897.897 0 00-.137-1.285c-.411-.321-1.006-.275-1.326.092zm7.454 10.097c-.411.367-.503.964-.228 1.33.32.368.869.368 1.326 0 .411-.366.503-.963.229-1.33-.32-.367-.915-.367-1.327 0zm-8.872 1.882c.457.137.869-.092 1.006-.46.092-.367-.137-.78-.594-.871-.458-.138-.87.091-1.006.458-.138.368.137.735.594.873zM5.35 20.928c.504.184 1.144-.32 1.373-1.101.274-.78.046-1.56-.458-1.744-.503-.184-1.143.321-1.372 1.101-.274.78-.045 1.56.458 1.744zm1.602-5.645c-.138.367 0 .689.228.78.229.092.503-.137.64-.504.138-.367 0-.689-.228-.78-.229-.092-.503.137-.64.504zm-.275 1.423c.137-.459.046-.918-.274-1.01-.275-.091-.64.184-.823.643-.138.459-.046.918.274 1.01.32.091.686-.184.823-.643zm14.269-9.913c1.28-.322 2.15-1.148 1.967-1.79-.183-.643-1.326-.918-2.607-.597-1.28.321-2.15 1.147-1.966 1.79.182.642 1.372.918 2.606.597zm-3.018.688c-.595.275-.915.78-.777 1.102.137.32.731.32 1.326.045.594-.275.915-.78.777-1.101-.183-.321-.777-.367-1.326-.046zm23.599 5.599c-.503.46-.229 1.607.686 2.57.869.964 2.012 1.377 2.515.918.503-.459.229-1.606-.686-2.57-.869-.964-2.012-1.377-2.515-.918zm-15.413-1.239c1.326-.046 2.378-.734 2.333-1.514-.046-.78-1.098-1.377-2.424-1.331-1.327.045-2.378.734-2.333 1.514.046.78 1.098 1.377 2.424 1.331zm-3.475.413c.548 0 1.006-.321 1.006-.642 0-.322-.458-.597-1.052-.551-.549 0-1.006.321-1.006.642.045.322.503.597 1.052.551zm19.757-.137c.228-.23.045-.827-.412-1.286-.457-.459-1.052-.642-1.28-.367-.23.23-.046.826.411 1.285.457.46 1.052.643 1.28.367z" fill="#fff"/><path d="M1.555 17.532c.183-.459.32-.918.549-1.377.366-.964.869-1.927 1.418-2.891a27.71 27.71 0 011.875-2.846 21.116 21.116 0 012.332-2.662c.823-.826 1.738-1.606 2.653-2.34a27.599 27.599 0 012.835-1.882A27.9 27.9 0 0116.1 2.111c.457-.23.96-.367 1.372-.55.457-.138.914-.322 1.326-.414.869-.23 1.646-.459 2.378-.596.366-.046.686-.138 1.006-.184.32-.046.595-.092.87-.138.502-.091.96-.091 1.234-.137a3.07 3.07 0 01.457-.046h-.457C24.01.046 23.599 0 23.05 0h-.869c-.32.046-.686.046-1.052.092-.732.092-1.6.183-2.47.367-.457.092-.914.23-1.417.321-.457.138-.96.276-1.464.46-1.006.32-2.012.78-3.064 1.33-1.006.55-2.058 1.148-3.064 1.882-.96.688-1.92 1.514-2.79 2.386a24.078 24.078 0 00-2.424 2.846 24.042 24.042 0 00-1.875 3.075c-.503 1.056-.96 2.065-1.326 3.075-.183.505-.32 1.01-.458 1.469-.137.505-.228.963-.32 1.422-.183.918-.32 1.744-.366 2.479-.045.321-.045.688-.091 1.01v.872c0 .55.046.963.046 1.239v.459s0-.138.045-.413c.046-.276.046-.689.138-1.24.045-.275.091-.55.137-.872.046-.32.137-.642.183-1.01a20.2 20.2 0 01.594-2.386c.138-.459.275-.872.412-1.33z" fill="#fff"/></svg>