<svg class="loader" width="73" height="73" fill="none" xmlns="http://www.w3.org/2000/svg"><style>@keyframes fadeG{0%{fill:#ab780a}}.loader__part{animation-name:fadeG;animation-duration:1.8s;animation-iteration-count:infinite;animation-direction:normal;animation-timing-function:linear;fill:#ab780a}</style><path class="loader__part" d="M36.5 13.54c-2.002 0-3.532-1.53-3.532-3.532V3.532C32.968 1.531 34.498 0 36.5 0s3.532 1.53 3.532 3.532v6.476c0 1.884-1.53 3.532-3.532 3.532z" style="animation-delay:-1.65s"/><path class="loader__part" d="M36.5 73c-2.002 0-3.532-1.53-3.532-3.532v-6.476c0-2.002 1.53-3.532 3.532-3.532s3.532 1.53 3.532 3.532v6.476c0 2.001-1.53 3.532-3.532 3.532z" style="animation-delay:-.75s"/><path class="loader__part" id="part-12" d="M23.195 17.073c-1.177 0-2.355-.59-3.061-1.767l-3.18-5.533c-.941-1.649-.352-3.886 1.296-4.828 1.648-.942 3.886-.353 4.828 1.295l3.178 5.534c.942 1.649.354 3.886-1.295 4.828-.47.235-1.177.47-1.766.47z"/><path class="loader__part" d="M52.984 68.526c-1.178 0-2.355-.589-3.062-1.766l-3.178-5.534c-.943-1.649-.354-3.886 1.295-4.828 1.648-.942 3.885-.353 4.827 1.295l3.18 5.534c.941 1.649.352 3.886-1.296 4.828a3.322 3.322 0 01-1.766.47z" style="animation-delay:-.9s"/><path class="loader__part" d="M13.54 26.727a3.323 3.323 0 01-1.766-.47l-5.534-3.18c-1.648-.942-2.237-3.179-1.295-4.827.942-1.648 3.18-2.237 4.828-1.295l5.533 3.179c1.649.942 2.238 3.179 1.296 4.827-.707 1.178-1.884 1.766-3.062 1.766z" style="animation-delay:-.15s"/><path class="loader__part" d="M65.111 56.516a3.322 3.322 0 01-1.766-.47l-5.651-3.18c-1.649-.942-2.237-3.179-1.296-4.827.942-1.649 3.18-2.237 4.828-1.296l5.534 3.18c1.648.941 2.237 3.179 1.295 4.827-.589 1.177-1.766 1.766-2.944 1.766z" style="animation-delay:-1.05s"/><path class="loader__part" d="M10.008 40.032H3.532C1.531 40.032 0 38.502 0 36.5s1.53-3.532 3.532-3.532h6.476c2.002 0 3.532 1.53 3.532 3.532s-1.648 3.532-3.532 3.532z" style="animation-delay:-.3s"/><path class="loader__part" d="M69.468 40.032h-6.476c-2.002 0-3.532-1.53-3.532-3.532s1.53-3.532 3.532-3.532h6.476c2.001 0 3.532 1.53 3.532 3.532s-1.53 3.532-3.532 3.532z" style="animation-delay:-1.2s"/><path class="loader__part" d="M7.889 56.516c-1.178 0-2.355-.589-3.062-1.766-.941-1.648-.353-3.886 1.296-4.827l5.533-3.18c1.649-.941 3.886-.353 4.828 1.296.942 1.648.353 3.885-1.295 4.827l-5.534 3.18c-.471.352-1.06.47-1.766.47z" style="animation-delay:-.45s"/><path class="loader__part" d="M59.46 26.727c-1.178 0-2.355-.588-3.062-1.766-.941-1.648-.353-3.885 1.296-4.827l5.533-3.18c1.649-.941 3.886-.352 4.828 1.296.942 1.648.353 3.886-1.295 4.827l-5.534 3.18a3.323 3.323 0 01-1.766.47z" style="animation-delay:-1.35s"/><path class="loader__part" d="M20.016 68.526a3.322 3.322 0 01-1.766-.471c-1.648-.942-2.237-3.18-1.295-4.828l3.179-5.533c.942-1.649 3.179-2.238 4.827-1.296 1.649.942 2.238 3.18 1.296 4.828l-3.18 5.534c-.706 1.177-1.883 1.766-3.06 1.766z" style="animation-delay:-.6s"/><path class="loader__part" d="M49.805 17.073a3.323 3.323 0 01-1.766-.471c-1.649-.942-2.238-3.18-1.296-4.828l3.18-5.534c.941-1.648 3.178-2.237 4.827-1.295 1.648.942 2.237 3.18 1.295 4.828l-3.179 5.534c-.706 1.06-1.884 1.766-3.061 1.766z" style="animation-delay:-1.5s"/></svg>