<svg width="147" height="69" fill="none" xmlns="http://www.w3.org/2000/svg"><g opacity=".5"><path opacity=".3" d="M107.873 66.355h-6.07a.407.407 0 00-.407.407v.939c0 .225.182.407.407.407h6.07a.408.408 0 00.408-.407v-.939a.408.408 0 00-.408-.407zm0-2.785h-6.07a.407.407 0 00-.407.407v.939c0 .225.182.407.407.407h6.07a.408.408 0 00.408-.407v-.94a.408.408 0 00-.408-.406zm0-2.79h-6.07a.407.407 0 00-.407.407v.94c0 .224.182.406.407.406h6.07a.408.408 0 00.408-.407v-.938a.408.408 0 00-.408-.408zm0-2.785h-6.07a.407.407 0 00-.407.407v.94c0 .224.182.406.407.406h6.07a.408.408 0 00.408-.407v-.939a.408.408 0 00-.408-.407zm0-2.789h-6.07a.407.407 0 00-.407.407v.939c0 .225.182.407.407.407h6.07a.408.408 0 00.408-.407v-.939a.408.408 0 00-.408-.407zm0-2.786h-6.07a.407.407 0 00-.407.408v.939c0 .225.182.407.407.407h6.07a.408.408 0 00.408-.407v-.94a.408.408 0 00-.408-.406zm0-2.784h-6.07a.407.407 0 00-.407.407v.939c0 .225.182.407.407.407h6.07a.408.408 0 00.408-.407v-.94a.408.408 0 00-.408-.406zm0-2.79h-6.07a.407.407 0 00-.407.407v.94c0 .224.182.407.407.407h6.07a.408.408 0 00.408-.408v-.939a.408.408 0 00-.408-.407zm0-2.785h-6.07a.407.407 0 00-.407.407v.94c0 .224.182.406.407.406h6.07a.408.408 0 00.408-.407v-.939a.408.408 0 00-.408-.407zm0-2.789h-6.07a.407.407 0 00-.407.407v.939c0 .225.182.407.407.407h6.07a.408.408 0 00.408-.407v-.94a.408.408 0 00-.408-.406zm0-2.785h-6.07a.407.407 0 00-.407.407v.939c0 .225.182.407.407.407h6.07a.408.408 0 00.408-.407v-.94a.408.408 0 00-.408-.406zm0-2.785h-6.07a.407.407 0 00-.407.407v.938c0 .226.182.408.407.408h6.07a.408.408 0 00.408-.407v-.94a.408.408 0 00-.408-.406zm0-2.79h-6.07a.407.407 0 00-.407.407v.939c0 .225.182.407.407.407h6.07a.408.408 0 00.408-.407v-.939a.408.408 0 00-.408-.407zm0-2.785h-6.07a.407.407 0 00-.407.407v.939c0 .225.182.407.407.407h6.07a.408.408 0 00.408-.407v-.939a.408.408 0 00-.408-.407zm0-2.785h-6.07a.407.407 0 00-.407.407v.939c0 .225.182.407.407.407h6.07a.408.408 0 00.408-.407v-.939a.408.408 0 00-.408-.407zm0-2.79h-6.07a.407.407 0 00-.407.408v.938c0 .225.182.408.407.408h6.07a.408.408 0 00.408-.408v-.938a.408.408 0 00-.408-.408zm0-2.785h-6.07a.407.407 0 00-.407.408v.938c0 .226.182.408.407.408h6.07a.408.408 0 00.408-.408v-.938a.408.408 0 00-.408-.408zm0-2.789h-6.07a.407.407 0 00-.407.407v.939c0 .225.182.407.407.407h6.07a.408.408 0 00.408-.407v-.939a.408.408 0 00-.408-.407zm0-2.785h-6.07a.407.407 0 00-.407.407v.939c0 .225.182.407.407.407h6.07a.408.408 0 00.408-.407V16.6a.408.408 0 00-.408-.407z" fill="#fff"/></g><g opacity=".5"><path opacity=".3" d="M117.539 66.355h-6.071a.407.407 0 00-.407.407v.939c0 .225.182.407.407.407h6.071a.407.407 0 00.407-.407v-.939a.407.407 0 00-.407-.407zm0-2.785h-6.071a.407.407 0 00-.407.407v.939c0 .225.182.407.407.407h6.071a.407.407 0 00.407-.407v-.939a.407.407 0 00-.407-.407zm0-2.79h-6.071a.407.407 0 00-.407.407v.94c0 .224.182.406.407.406h6.071a.407.407 0 00.407-.407v-.939a.407.407 0 00-.407-.407zm0-2.785h-6.071a.407.407 0 00-.407.408v.938c0 .225.182.407.407.407h6.071a.407.407 0 00.407-.407v-.938a.407.407 0 00-.407-.408zm0-2.789h-6.071a.407.407 0 00-.407.407v.939c0 .225.182.407.407.407h6.071a.407.407 0 00.407-.407v-.939a.407.407 0 00-.407-.407zm0-2.786h-6.071a.407.407 0 00-.407.408v.939c0 .225.182.407.407.407h6.071a.407.407 0 00.407-.407v-.94a.407.407 0 00-.407-.406zm0-2.784h-6.071a.407.407 0 00-.407.407v.939c0 .225.182.407.407.407h6.071a.407.407 0 00.407-.407v-.94a.407.407 0 00-.407-.406zm0-2.79h-6.071a.407.407 0 00-.407.407v.94c0 .224.182.407.407.407h6.071a.407.407 0 00.407-.408v-.939a.407.407 0 00-.407-.407zm0-2.785h-6.071a.407.407 0 00-.407.407v.94c0 .224.182.406.407.406h6.071a.407.407 0 00.407-.407v-.939a.407.407 0 00-.407-.407zm0-2.789h-6.071a.407.407 0 00-.407.407v.939c0 .225.182.407.407.407h6.071a.407.407 0 00.407-.407v-.94a.407.407 0 00-.407-.406zm.001-2.786h-6.071a.407.407 0 00-.407.408v.939c0 .224.182.407.407.407h6.071a.407.407 0 00.407-.407v-.94a.407.407 0 00-.407-.407z" fill="#fff"/></g><g opacity=".5"><path opacity=".3" d="M127.492 66.355h-6.071a.407.407 0 00-.407.407v.939c0 .225.182.407.407.407h6.071a.407.407 0 00.407-.407v-.939a.407.407 0 00-.407-.407zm0-2.785h-6.071a.407.407 0 00-.407.407v.939c0 .225.182.407.407.407h6.071a.407.407 0 00.407-.407v-.94a.407.407 0 00-.407-.406zm0-2.79h-6.071a.407.407 0 00-.407.407v.94c0 .224.182.406.407.406h6.071a.407.407 0 00.407-.407v-.938a.407.407 0 00-.407-.408zm0-2.785h-6.071a.407.407 0 00-.407.407v.94c0 .224.182.406.407.406h6.071a.407.407 0 00.407-.407v-.939a.407.407 0 00-.407-.407zm0-2.789h-6.07a.408.408 0 00-.408.407v.939c0 .225.183.407.408.407h6.07a.408.408 0 00.408-.407v-.939a.408.408 0 00-.408-.407z" fill="#fff"/></g><g opacity=".5"><path opacity=".3" d="M137.158 66.355h-6.07a.408.408 0 00-.408.407v.939c0 .225.183.407.408.407h6.07a.408.408 0 00.408-.407v-.94a.408.408 0 00-.408-.406zm0-2.785h-6.07a.408.408 0 00-.408.407v.938c0 .225.183.408.408.408h6.07a.408.408 0 00.408-.407v-.94a.408.408 0 00-.408-.407zm0-2.79h-6.07a.408.408 0 00-.408.407v.94c0 .224.183.406.408.406h6.07a.408.408 0 00.408-.407v-.939a.408.408 0 00-.408-.407zm0-2.785h-6.07a.408.408 0 00-.408.407v.939c0 .225.183.407.408.407h6.07a.408.408 0 00.408-.407v-.939a.408.408 0 00-.408-.407zm0-2.789h-6.07a.408.408 0 00-.408.407v.939c0 .225.183.407.408.407h6.07a.408.408 0 00.408-.407v-.94a.408.408 0 00-.408-.406zm0-2.786h-6.07a.408.408 0 00-.408.408v.939c0 .224.183.407.408.407h6.07a.408.408 0 00.408-.407v-.94a.408.408 0 00-.408-.407zm0-2.785h-6.07a.408.408 0 00-.408.408v.938c0 .225.183.408.408.408h6.07a.408.408 0 00.408-.408v-.938a.408.408 0 00-.408-.408zm0-2.789h-6.07a.408.408 0 00-.408.407v.939c0 .225.183.407.408.407h6.07a.408.408 0 00.408-.407v-.939a.408.408 0 00-.408-.407zm0-2.785h-6.07a.407.407 0 00-.407.407v.939c0 .225.182.407.407.407h6.07a.408.408 0 00.408-.407v-.939a.408.408 0 00-.408-.407z" fill="#fff"/></g><g opacity=".5"><path opacity=".3" d="M146.138 66.355h-6.071a.407.407 0 00-.407.407v.939c0 .225.182.407.407.407h6.071a.407.407 0 00.407-.407v-.939a.407.407 0 00-.407-.407zm0-2.785h-6.071a.407.407 0 00-.407.407v.939c0 .225.182.407.407.407h6.071a.407.407 0 00.407-.407v-.939a.407.407 0 00-.407-.407zm0-2.79h-6.071a.407.407 0 00-.407.407v.94c0 .224.182.406.407.406h6.071a.407.407 0 00.407-.407v-.938a.407.407 0 00-.407-.408zm0-2.785h-6.071a.407.407 0 00-.407.408v.938c0 .225.182.407.407.407h6.071a.407.407 0 00.407-.407v-.938a.407.407 0 00-.407-.408zm0-2.789h-6.071a.407.407 0 00-.407.407v.939c0 .225.182.407.407.407h6.071a.407.407 0 00.407-.407v-.939a.407.407 0 00-.407-.407zm0-2.786h-6.071a.407.407 0 00-.407.408v.939c0 .225.182.407.407.407h6.071a.407.407 0 00.407-.407v-.94a.407.407 0 00-.407-.406zm0-2.784h-6.071a.407.407 0 00-.407.407v.938c0 .225.182.408.407.408h6.071a.407.407 0 00.407-.408v-.938a.407.407 0 00-.407-.407zm0-2.79h-6.071a.407.407 0 00-.407.407v.94c0 .224.182.407.407.407h6.071a.408.408 0 00.407-.408v-.939a.408.408 0 00-.407-.407z" fill="#fff"/></g><g opacity=".5"><path opacity=".3" d="M44.742 66.355h-6.07a.407.407 0 00-.407.407v.939c0 .225.182.407.407.407h6.07a.407.407 0 00.408-.407v-.939a.407.407 0 00-.408-.407zm0-2.785h-6.07a.407.407 0 00-.407.407v.939c0 .225.182.407.407.407h6.07a.407.407 0 00.408-.407v-.94a.407.407 0 00-.408-.406zm0-2.79h-6.07a.407.407 0 00-.407.407v.94c0 .224.182.406.407.406h6.07a.407.407 0 00.408-.407v-.938a.407.407 0 00-.408-.408zm0-2.785h-6.07a.407.407 0 00-.407.407v.94c0 .224.182.406.407.406h6.07a.407.407 0 00.408-.407v-.939a.407.407 0 00-.408-.407zm0-2.789h-6.07a.407.407 0 00-.407.407v.939c0 .225.182.407.407.407h6.07a.407.407 0 00.408-.407v-.939a.407.407 0 00-.408-.407zm0-2.786h-6.07a.407.407 0 00-.407.408v.939c0 .225.182.407.407.407h6.07a.407.407 0 00.408-.407v-.94a.407.407 0 00-.408-.406zm0-2.784h-6.07a.407.407 0 00-.407.407v.939c0 .225.182.407.407.407h6.07a.407.407 0 00.408-.407v-.94a.407.407 0 00-.408-.406zm0-2.79h-6.07a.407.407 0 00-.407.407v.94c0 .224.182.407.407.407h6.07a.407.407 0 00.408-.408v-.939a.407.407 0 00-.408-.407zm0-2.785h-6.07a.407.407 0 00-.407.407v.94c0 .224.182.406.407.406h6.07a.407.407 0 00.408-.407v-.939a.407.407 0 00-.408-.407zm0-2.789h-6.07a.407.407 0 00-.407.407v.939c0 .225.182.407.407.407h6.07a.407.407 0 00.408-.407v-.94a.407.407 0 00-.408-.406zm0-2.785h-6.07a.407.407 0 00-.407.407v.939c0 .225.182.407.407.407h6.07a.407.407 0 00.408-.407v-.94a.407.407 0 00-.408-.406zm0-2.785h-6.07a.407.407 0 00-.407.407v.938c0 .226.182.408.407.408h6.07a.407.407 0 00.408-.407v-.94a.407.407 0 00-.408-.406zm0-2.79h-6.07a.407.407 0 00-.407.407v.939c0 .225.182.407.407.407h6.07a.407.407 0 00.408-.407v-.939a.407.407 0 00-.408-.407zm0-2.785h-6.07a.407.407 0 00-.407.407v.939c0 .225.182.407.407.407h6.07a.407.407 0 00.408-.407v-.939a.407.407 0 00-.408-.407zm0-2.785h-6.07a.407.407 0 00-.407.407v.939c0 .225.182.407.407.407h6.07a.407.407 0 00.408-.407v-.939a.407.407 0 00-.408-.407zm0-2.79h-6.07a.407.407 0 00-.407.408v.938c0 .225.182.408.407.408h6.07a.407.407 0 00.408-.408v-.938a.407.407 0 00-.408-.408zm0-2.785h-6.07a.407.407 0 00-.407.408v.938c0 .226.182.408.407.408h6.07a.407.407 0 00.408-.408v-.938a.407.407 0 00-.408-.408zm0-2.785h-6.07a.407.407 0 00-.407.408v.938c0 .225.182.408.407.408h6.07a.407.407 0 00.408-.408v-.938a.407.407 0 00-.408-.408zm0-2.789h-6.07a.407.407 0 00-.407.407v.939c0 .225.182.407.407.407h6.07a.407.407 0 00.408-.407V16.6a.407.407 0 00-.408-.407z" fill="#fff"/></g><g opacity=".5"><path opacity=".3" d="M35.077 66.355h-6.07a.407.407 0 00-.408.407v.939c0 .225.182.407.407.407h6.07a.407.407 0 00.408-.407v-.939a.407.407 0 00-.407-.407zm0-2.785h-6.07a.407.407 0 00-.408.407v.939c0 .225.182.407.407.407h6.07a.407.407 0 00.408-.407v-.939a.407.407 0 00-.407-.407zm0-2.79h-6.07a.407.407 0 00-.408.407v.94c0 .224.182.406.407.406h6.07a.407.407 0 00.408-.407v-.939a.407.407 0 00-.407-.407zm0-2.785h-6.07a.407.407 0 00-.408.408v.938c0 .225.182.407.407.407h6.07a.407.407 0 00.408-.407v-.938a.407.407 0 00-.407-.408zm0-2.789h-6.07a.407.407 0 00-.408.407v.939c0 .225.182.407.407.407h6.07a.407.407 0 00.408-.407v-.939a.407.407 0 00-.407-.407zm0-2.786h-6.07a.407.407 0 00-.408.408v.939c0 .225.182.407.407.407h6.07a.407.407 0 00.408-.407v-.94a.407.407 0 00-.407-.406zm0-2.784h-6.07a.407.407 0 00-.408.407v.939c0 .225.182.407.407.407h6.07a.407.407 0 00.408-.407v-.94a.407.407 0 00-.407-.406zm0-2.79h-6.07a.407.407 0 00-.408.407v.94c0 .224.182.407.407.407h6.07a.407.407 0 00.408-.408v-.939a.407.407 0 00-.407-.407zm0-2.785h-6.07a.407.407 0 00-.408.407v.94c0 .224.182.406.407.406h6.07a.407.407 0 00.408-.407v-.939a.407.407 0 00-.407-.407zm0-2.789h-6.07a.407.407 0 00-.408.407v.939c0 .225.182.407.407.407h6.07a.407.407 0 00.408-.407v-.94a.407.407 0 00-.407-.406zm0-2.786h-6.07a.407.407 0 00-.408.408v.939c0 .224.183.407.408.407h6.07a.407.407 0 00.408-.407v-.94a.407.407 0 00-.408-.407z" fill="#fff"/></g><g opacity=".5"><path opacity=".3" d="M25.123 66.355h-6.07a.407.407 0 00-.408.407v.939c0 .225.183.407.407.407h6.07a.407.407 0 00.408-.407v-.939a.407.407 0 00-.407-.407zm0-2.785h-6.07a.407.407 0 00-.408.407v.939c0 .225.183.407.407.407h6.07a.407.407 0 00.408-.407v-.94a.407.407 0 00-.407-.406zm0-2.79h-6.07a.407.407 0 00-.408.407v.94c0 .224.183.406.407.406h6.07a.407.407 0 00.408-.407v-.938a.407.407 0 00-.407-.408zm0-2.785h-6.07a.407.407 0 00-.408.407v.94c0 .224.183.406.407.406h6.07a.407.407 0 00.408-.407v-.939a.407.407 0 00-.407-.407zm0-2.789h-6.07a.407.407 0 00-.408.407v.939c0 .225.183.407.408.407h6.07a.407.407 0 00.408-.407v-.939a.407.407 0 00-.408-.407z" fill="#fff"/></g><g opacity=".5"><path opacity=".3" d="M15.457 66.355h-6.07a.407.407 0 00-.407.407v.939c0 .225.182.407.407.407h6.07a.407.407 0 00.408-.407v-.94a.407.407 0 00-.408-.406zm0-2.785h-6.07a.407.407 0 00-.407.407v.938c0 .225.182.408.407.408h6.07a.407.407 0 00.408-.407v-.94a.407.407 0 00-.408-.407zm0-2.79h-6.07a.407.407 0 00-.407.407v.94c0 .224.182.406.407.406h6.07a.407.407 0 00.408-.407v-.939a.407.407 0 00-.408-.407zm0-2.785h-6.07a.407.407 0 00-.407.407v.939c0 .225.182.407.407.407h6.07a.407.407 0 00.408-.407v-.939a.407.407 0 00-.408-.407zm0-2.789h-6.07a.407.407 0 00-.407.407v.939c0 .225.182.407.407.407h6.07a.407.407 0 00.408-.407v-.94a.407.407 0 00-.408-.406zm0-2.786h-6.07a.407.407 0 00-.407.408v.939c0 .224.182.407.407.407h6.07a.407.407 0 00.408-.407v-.94a.407.407 0 00-.408-.407zm0-2.785h-6.07a.407.407 0 00-.407.408v.938c0 .225.182.408.407.408h6.07a.407.407 0 00.408-.408v-.938a.407.407 0 00-.408-.408zm0-2.789h-6.07a.407.407 0 00-.407.407v.939c0 .225.182.407.407.407h6.07a.407.407 0 00.408-.407v-.939a.407.407 0 00-.408-.407zm.001-2.785h-6.07a.407.407 0 00-.408.407v.939c0 .225.182.407.407.407h6.07a.407.407 0 00.408-.407v-.939a.407.407 0 00-.407-.407z" fill="#fff"/></g><g opacity=".5"><path opacity=".3" d="M6.478 66.355H.408a.407.407 0 00-.408.407v.939c0 .225.182.407.407.407h6.07a.407.407 0 00.408-.407v-.939a.407.407 0 00-.407-.407zm0-2.785H.408a.407.407 0 00-.408.407v.939c0 .225.182.407.407.407h6.07a.407.407 0 00.408-.407v-.939a.407.407 0 00-.407-.407zm0-2.79H.408a.407.407 0 00-.408.407v.94c0 .224.182.406.407.406h6.07a.407.407 0 00.408-.407v-.938a.407.407 0 00-.407-.408zm0-2.785H.408a.407.407 0 00-.408.408v.938c0 .225.182.407.407.407h6.07a.407.407 0 00.408-.407v-.938a.407.407 0 00-.407-.408zm0-2.789H.408a.407.407 0 00-.408.407v.939c0 .225.182.407.407.407h6.07a.407.407 0 00.408-.407v-.939a.407.407 0 00-.407-.407zm0-2.786H.408a.407.407 0 00-.408.408v.939c0 .225.182.407.407.407h6.07a.407.407 0 00.408-.407v-.94a.407.407 0 00-.407-.406zm0-2.784H.408a.407.407 0 00-.408.407v.938c0 .225.182.408.407.408h6.07a.407.407 0 00.408-.408v-.938a.407.407 0 00-.407-.407zm.001-2.79H.409a.407.407 0 00-.408.407v.94c0 .224.182.407.407.407h6.07a.407.407 0 00.408-.408v-.939a.407.407 0 00-.407-.407z" fill="#fff"/></g><path d="M82.228 21.998a1.702 1.702 0 01-.678-.138 1.754 1.754 0 01-.575-.399 9.136 9.136 0 00-2.97-2.06 8.866 8.866 0 00-3.503-.723 8.866 8.866 0 00-3.503.724 9.136 9.136 0 00-2.97 2.06 1.743 1.743 0 01-1.255.538c-.47 0-.921-.194-1.254-.539a1.875 1.875 0 01-.52-1.3c0-.489.187-.957.52-1.302a12.675 12.675 0 014.12-2.856A12.305 12.305 0 0174.5 15c1.669 0 3.32.34 4.862 1.003a12.677 12.677 0 014.12 2.856c.247.257.416.585.484.941.068.357.033.726-.1 1.062a1.827 1.827 0 01-.653.825c-.291.203-.634.31-.985.311z" fill="#fff"/><path d="M60.734 16.998c-.343 0-.678-.111-.963-.32a1.866 1.866 0 01-.639-.847 2.047 2.047 0 01-.099-1.091c.067-.367.232-.703.474-.968 1.967-2.146 4.304-3.85 6.877-5.012A19.69 19.69 0 0174.499 7c2.785 0 5.543.598 8.116 1.76 2.573 1.162 4.91 2.866 6.876 5.012.326.355.509.836.509 1.337 0 .502-.183.983-.509 1.337a1.736 1.736 0 01-.563.41c-.21.095-.437.144-.665.144-.46 0-.902-.2-1.228-.554a17.7 17.7 0 00-5.75-4.188 16.47 16.47 0 00-6.786-1.471c-2.328 0-4.634.5-6.785 1.47a17.7 17.7 0 00-5.75 4.19 1.729 1.729 0 01-.565.409 1.61 1.61 0 01-.665.142z" fill="#fff"/><path d="M93.317 10.998c-.222 0-.44-.041-.645-.123a1.685 1.685 0 01-.546-.352 25.671 25.671 0 00-8.313-5.378 26.378 26.378 0 00-9.811-1.888c-3.367 0-6.701.641-9.811 1.888a25.671 25.671 0 00-8.313 5.378 1.717 1.717 0 01-1.192.477c-.447 0-.876-.172-1.192-.477A1.601 1.601 0 0153 9.37c0-.432.178-.846.494-1.152A29.053 29.053 0 0162.9 2.136 29.852 29.852 0 0174 0c3.81 0 7.583.726 11.102 2.136a29.053 29.053 0 019.405 6.083c.236.228.396.518.46.834.066.315.032.642-.095.94a1.642 1.642 0 01-.62.73 1.729 1.729 0 01-.935.275zM81.55 68.999h-15.1a1.883 1.883 0 01-.55-.063 1.538 1.538 0 01-.471-.213 1.07 1.07 0 01-.317-.33A.768.768 0 0165 68c0-.135.038-.269.112-.393a1.07 1.07 0 01.317-.33c.135-.093.296-.166.471-.213.176-.048.363-.07.55-.063h15.1c.187-.006.374.015.55.063.175.047.336.12.471.213.136.093.244.206.317.33A.768.768 0 0183 68a.768.768 0 01-.112.393 1.07 1.07 0 01-.317.33 1.538 1.538 0 01-.471.213 1.883 1.883 0 01-.55.063z" fill="#fff"/><path d="M74 69c-.264 0-.517-.143-.704-.398a1.664 1.664 0 01-.296-.965V56.375c0-.364.105-.714.293-.972.187-.257.442-.402.707-.402.265 0 .52.145.707.402.188.258.293.608.293.972v11.264a1.664 1.664 0 01-.296.964c-.187.255-.44.398-.704.398z" fill="#fff"/><path d="M74.076 58h-.136c-1.568 0-3.12-.35-4.569-1.03a11.959 11.959 0 01-3.873-2.937 13.806 13.806 0 01-2.588-4.398 15.17 15.17 0 01-.91-5.188c0-.384.134-.752.373-1.023a1.2 1.2 0 01.9-.424c.338 0 .662.152.9.424.24.27.374.639.374 1.023 0 2.827.99 5.538 2.75 7.537 1.76 1.999 4.146 3.122 6.635 3.123h.136c2.49 0 4.876-1.124 6.636-3.123 1.76-2 2.749-4.71 2.75-7.538 0-.383.133-.751.372-1.022a1.2 1.2 0 01.9-.424 1.2 1.2 0 01.901.424c.239.27.373.639.373 1.023 0 3.594-1.258 7.04-3.496 9.582C80.267 56.571 77.233 58 74.069 58h.008z" fill="#fff"/><path d="M77.254 44.402v-1.699H81v-1.699h-3.746v-1.699H81v-1.71h-3.746v-1.698H81v-1.71h-3.746v-1.704H81v-.314c0-1.901-.73-3.725-2.03-5.07A6.812 6.812 0 0074.073 25h-.138c-1.838 0-3.6.755-4.9 2.1a7.298 7.298 0 00-2.029 5.07v.313h3.74v1.698H67v1.71h3.74v1.7H67V39.3h3.74v1.704H67v1.71h3.74v1.699H67v.431a7.297 7.297 0 002.034 5.061A6.812 6.812 0 0073.928 52h.138c.91 0 1.812-.184 2.653-.544a6.916 6.916 0 002.249-1.553 7.191 7.191 0 001.503-2.325c.349-.87.529-1.803.529-2.745v-.431h-3.746z" fill="#fff"/></svg>