<svg width="33" height="10" fill="none" xmlns="http://www.w3.org/2000/svg"><g clip-path="url(#clip0)" fill="#F6C866"><path d="M3.504 9.921c-.709 0-.354-4.724-.354-5.354 0-.709 0-.748-.512-1.26-.63-.67-1.26-1.3-1.89-1.968v6.417c0 .315.236 2.126-.354 2.126S.039 8.189.039 7.874V3.78c0-.985-.157-2.087 0-3.071.237-1.142 1.103.078 1.496.472.63.67 1.733 1.457 2.205 2.244.197.315.118.748.118 1.142v2.165c-.04.394.276 3.19-.354 3.19zm8.936-7.086c-.55-.552-1.101-1.103-1.653-1.654-.275-.276-1.26-1.653-1.653-.984-.236.433-.04 1.457-.04 1.929v6.968c0 .197-.078.552.119.71.393.354.55-.158.59-.434.158-.945-.04-1.968 0-2.874.04-.709.551-1.024 1.063-1.535.236-.276 2.008-1.693 1.575-2.126zM9.765 5.079V1.142c.354.354.708.708 1.023 1.063.158.157.906.708.906.905 0 .197-.827.827-.984.984-.276.315-.59.63-.945.985zM23.504 10c-.394 0-.866-.748-1.102-.945-.394-.394-1.024-1.338-1.536-1.535-.276-.118-.236-.04-.551.275L18.7 9.41c-.315.315-.709.827-.985.158-.078-.197 0-.63 0-.827V4.567c0-1.26-.039-2.52 0-3.78 0-.315-.078-.787.394-.748.355.04.866.788 1.063.985.355.354.945 1.22 1.418 1.417.314.118.314-.04.63-.354L22.756.55c.276-.275 1.417-1.063.984 0-.197.433-.905.906-1.26 1.26-.433.433-.905 1.142-1.456 1.457-.788.433-2.087-1.457-2.638-2.008v7.52l1.496-1.497c.433-.433.63-.826 1.22-.433.63.394 1.142 1.142 1.654 1.654.118.04 1.732 1.496.748 1.496zM32.283.04c-.55-.237-2.126 1.81-2.52 2.204L28.229.71c-.315-.315-.905-1.103-1.18-.315-.158.433 0 1.141 0 1.574v5.67c0 .551-.119 1.22 0 1.771.117.591.59.591.669 0 .118-.787 0-1.732 0-2.559 0-.59-.118-1.26.196-1.732.433-.709 1.3-1.3 1.85-1.85.591.59 1.851 1.417 2.048 2.204.315 1.26-.315 2.756 0 4.016.157.512.551.551.67 0 .078-.354 0-.866 0-1.26V1.142c.039-.236.157-.945-.198-1.103.119.08-.118-.039 0 0zm-4.566 4.25V1.18c.236.236 1.574 1.22 1.574 1.575 0 .354-1.299 1.3-1.574 1.535zm2.559-1.535L31.85 1.18v3.11a58.775 58.775 0 01-1.574-1.535z"/></g><defs><clipPath id="clip0"><path fill="#fff" d="M0 0h32.559v10H0z"/></clipPath></defs></svg>