<svg width="32" height="11" fill="none" xmlns="http://www.w3.org/2000/svg"><g clip-path="url(#clip0)" fill="#F6C866"><path d="M3.103 2.82L.69 5.234c0-.804-.115-1.11.46-1.686.727-.728 1.532-1.417 2.222-2.183.23-.269.613-.882-.115-.767-.268.077-.537.46-.69.613A84.308 84.308 0 00.69 3.051c0-.652.191-1.61 0-2.185C.42.062.038.752.038 1.211c-.076 1.724 0 3.449 0 5.211v2.605c0 .269-.115 1.035.154 1.188.69.422.498-1.456.498-1.686 0-.613-.23-1.762 0-2.337.23-.536 1.187-1.188 1.57-1.57.345-.346.767-.69 1.073-1.074.077-.076.192-.153.23-.23.153-.268-.038-.88-.46-.498zm8.085 2.3c.383-.767.766-1.495 1.15-2.261.267-.498.497-.996.766-1.494.076-.154.383-.537.344-.767-.23-1.15-1.302 1.188-1.379 1.341-.421.805-.843 1.648-1.264 2.452-.613-1.187-1.111-2.72-1.916-3.754-.46-.575-.766-.115-.536.421.344.766.766 1.494 1.149 2.222.23.46.881 1.303.92 1.801.038.345-.46.92-.614 1.226-.42.805-.842 1.61-1.226 2.414-.114.23-.728 1.686.154 1.073.46-.307.766-1.456 1.034-1.954.345-.69.69-1.341 1.035-2.031.421.805.804 1.57 1.226 2.375.23.422.421.92.69 1.303.191.268.612.69.727.077.039-.23-.268-.575-.345-.767-.23-.46-.498-.957-.727-1.417a60.964 60.964 0 01-1.188-2.26zm8.697 4.75c-.46 0-1.188-1.034-1.456-1.302-.421-.422-1.226-.958-1.456-1.456-.23-.498.077-.652.498-.46.23.115.46.46.613.613L19.54 8.72V2.17c0-.421-.115-1.111 0-1.532.268-.767.728-.115 1.073.191.575.575 1.264 1.15 1.762 1.763.192.23.613.728-.038.766-.23 0-.46-.307-.575-.46l-1.57-1.57v4.367c0 .536.344 4.176-.307 4.176zM31.38.253c-.537-.23-2.07 1.763-2.453 2.146L27.318.789c-.345-.344-.881-.919-1.073-.114-.115.575 0 1.264 0 1.839v5.785c0 .345-.115.92 0 1.226.153.46.537.384.651-.038.039-.153 0-.383 0-.498V1.364l.958.958c.192.192.69.92 1.035.92s.766-.651.996-.843c.383-.345.69-.69 1.034-.996 0 2.605-.076 5.172 0 7.778 0 .383.269 1.187.652.498.115-.23.038-.69.038-.92V1.555c0-.345.115-1.15-.23-1.303.115.077-.115-.038 0 0z"/></g><defs><clipPath id="clip0"><path fill="#fff" transform="translate(0 .253)" d="M0 0h31.648v10H0z"/></clipPath></defs></svg>